<?xml version="1.0" encoding="UTF-8" standalone="no"?>
<!-- Created with Inkscape (http://www.inkscape.org/) -->

<svg
   width="210mm"
   height="297mm"
   viewBox="0 0 210 297"
   version="1.1"
   id="svg5"
   xml:space="preserve"
   xmlns="http://www.w3.org/2000/svg"
   xmlns:svg="http://www.w3.org/2000/svg"><defs
     id="defs2" /><g
     id="layer1"><rect
       style="fill:#333333;stroke-width:0.264583"
       id="rect183"
       width="111.125"
       height="64.558334"
       x="18.057816"
       y="-104.24583"
       ry="19.049999"
       transform="scale(1,-1)" /><rect
       style="fill:#e6e6e6;stroke-width:0.264583"
       id="rect243"
       width="111.125"
       height="64.558334"
       x="15.941147"
       y="-101.07083"
       ry="19.049999"
       transform="scale(1,-1)" /><path
       style="fill:#000000;stroke-width:0.264583"
       d="M 49.841547,82.161542 C 46.58511,81.00076 45.197736,78.019187 45.182846,72.149635 c -0.01907,-7.516217 2.328292,-10.792016 7.768326,-10.840899 3.350699,-0.03011 5.185215,0.79601 6.415032,2.888816 0.816491,1.389438 1.411317,4.178274 1.417225,6.644631 l 0.0046,1.918229 h -5.159375 -5.159375 v 1.68031 c 0,3.033111 0.936715,4.66969 2.672749,4.66969 1.193835,0 1.953546,-0.812259 2.393355,-2.5589 l 0.288383,-1.145267 h 2.379287 2.379284 l -0.174705,0.992188 c -0.771273,4.380249 -2.952427,6.165824 -7.500204,6.13995 -1.122702,-0.0064 -2.502344,-0.175966 -3.065874,-0.376841 z m 5.917915,-13.436026 c -0.0021,-1.265622 -0.490434,-2.807015 -1.074036,-3.390618 -0.73197,-0.731969 -2.371709,-0.687809 -3.094075,0.08333 -0.739902,0.789855 -1.122079,1.85459 -1.122079,3.126079 v 1.041109 h 2.645833 2.645834 l -0.0016,-0.859896 z m 24.371441,13.441262 c -1.48309,-0.48111 -3.002399,-1.964437 -3.778909,-3.689409 -0.561599,-1.247564 -0.608568,-1.717041 -0.611661,-6.113832 -0.0037,-5.272311 0.173054,-6.229294 1.521598,-8.237761 0.614428,-0.915104 1.280615,-1.491602 2.358509,-2.040986 1.316649,-0.671073 1.790547,-0.766328 3.836458,-0.771146 3.598347,-0.0085 5.519264,1.088087 6.695401,3.822092 0.533929,1.241152 1.0565,4.508453 1.060799,6.632489 l 0.002,0.992187 H 85.896579 80.57806 l 0.190365,1.918229 c 0.32731,3.29816 1.024869,4.431771 2.72705,4.431771 1.134006,0 1.905775,-0.763298 2.285026,-2.259945 l 0.332444,-1.31193 2.286492,-0.07645 2.286495,-0.07645 v 0.903078 c 0,2.15686 -1.420596,4.565073 -3.256474,5.520415 -1.416253,0.736981 -5.510712,0.937617 -7.298563,0.357642 z m 6.05712,-12.797356 c 0,-0.118795 -0.129064,-0.922467 -0.286811,-1.785938 -0.357309,-1.955847 -1.041263,-2.760572 -2.346272,-2.760572 -1.712228,0 -2.363796,0.847899 -2.795638,3.638021 l -0.174043,1.124479 h 2.801382 c 1.540761,0 2.801382,-0.09719 2.801382,-0.21599 z m 21.034377,12.93317 c -2.70503,-0.658538 -4.01495,-2.329531 -4.16167,-5.308846 l -0.0717,-1.455209 2.31511,-0.07645 c 2.28589,-0.07548 2.3151,-0.06847 2.3151,0.555831 0,1.053127 0.53226,2.239902 1.20112,2.678158 1.47506,0.966496 3.86851,0.194814 4.16229,-1.34198 0.33118,-1.732486 -0.676,-2.667715 -4.06524,-3.774832 -2.55982,-0.836177 -4.46101,-2.073022 -5.10095,-3.318473 -0.84922,-1.652786 -0.88701,-3.780593 -0.0977,-5.50458 1.09278,-2.386938 3.12327,-3.415917 6.81094,-3.451537 4.48988,-0.04337 6.55036,1.441582 7.03134,5.067351 l 0.18058,1.361301 h -2.41533 c -2.25846,0 -2.41534,-0.03522 -2.41534,-0.542306 0,-0.749288 -0.68535,-2.005317 -1.20248,-2.203757 -1.66796,-0.640055 -3.56002,0.383318 -3.56002,1.925532 0,1.310994 0.92579,2.026701 3.96875,3.068137 4.76602,1.631147 5.84105,2.782341 5.85206,6.266694 0.0102,3.227797 -1.62996,5.371909 -4.60831,6.024247 -1.41656,0.310267 -4.91828,0.327787 -6.13854,0.03072 z M 24.981077,82.109023 C 24.884063,82.01201 24.804688,75.880291 24.804688,68.482981 V 55.033328 h 2.778125 2.778125 v 5.159375 5.159376 h 3.175 3.175 v -5.159376 -5.159375 h 2.778125 2.778125 v 13.635298 13.635299 l -2.711979,-0.0754 -2.711979,-0.0754 -0.07111,-6.019271 -0.07111,-6.019271 H 33.530978 30.360945 V 76.2 82.285416 h -2.601736 c -1.430955,0 -2.681111,-0.07937 -2.778125,-0.176389 z M 63.698439,71.966662 v -10.31875 h 2.38125 2.38125 v 1.322917 c 0,0.727604 0.0893,1.318398 0.198438,1.312875 0.10914,-0.0055 0.520623,-0.476008 0.914405,-1.045522 0.842446,-1.2184 1.736759,-1.733957 3.454704,-1.991579 l 1.253287,-0.187942 v 2.505893 2.505891 l -1.63539,0.170933 c -1.796119,0.187731 -2.613282,0.601411 -3.321862,1.681655 -0.40939,0.62412 -0.476827,1.549738 -0.549114,7.53694 l -0.0824,6.825439 h -2.497283 -2.49728 z M 94.65469,61.118745 v -6.085417 h 2.38125 2.38125 v 6.085417 6.085417 h -2.38125 -2.38125 z"
       id="path5907" /><path
       style="fill:none;stroke:#000000;stroke-width:2;stroke-linejoin:round;stroke-dasharray:none;stroke-opacity:1"
       d="m 127.10797,68.89058 h 33.25399 l 0.044,30.470714"
       id="bind:link12" /><path
       style="fill:#000000;stroke:#000000;stroke-width:2;stroke-linejoin:round;stroke-dasharray:none;stroke-opacity:1"
       id="bind:link12arrow"
       d="m -75.670829,71.966665 -18.789144,-32.543749 37.578286,-10e-7 z"
       transform="matrix(0.29147563,0,0,0.29147563,182.63167,88.083974)" /><rect
       style="fill:#333333;stroke-width:0.173496"
       id="rect185"
       width="72.868851"
       height="42.333332"
       x="122.29298"
       y="-153.4583"
       ry="12.491803"
       transform="scale(1,-1)" /><rect
       style="fill:#e6e6e6;stroke-width:0.173496"
       id="rect537"
       width="72.868851"
       height="42.333332"
       x="124.40963"
       y="-151.34166"
       ry="12.491803"
       transform="scale(1,-1)" /><path
       style="fill:#000000;stroke-width:0.203451"
       d="m 154.50006,140.44566 c -0.52415,-0.16129 -1.23722,-0.57748 -1.58461,-0.92487 -1.47926,-1.47926 -1.92252,-3.34342 -1.79181,-7.53554 0.13379,-4.29058 0.84673,-5.88772 3.12595,-7.00285 0.97216,-0.47562 1.36696,-0.54677 3.03453,-0.54677 1.6603,0 2.06436,0.0721 3.01769,0.53854 1.18786,0.58116 1.91369,1.44197 2.50905,2.97563 0.29058,0.74852 0.35607,1.58359 0.35902,4.57767 0.003,3.36774 -0.0347,3.75805 -0.47215,4.85533 -0.62539,1.56849 -1.72924,2.6611 -3.09963,3.06807 -1.31288,0.38988 -3.82243,0.38732 -5.09804,-0.005 z m 3.7603,-2.73427 c 0.70359,-0.55343 1.01564,-2.11493 1.01564,-5.0822 0,-2.96726 -0.31205,-4.52877 -1.01564,-5.0822 -0.79036,-0.62171 -1.74799,-0.53888 -2.37422,0.20535 -0.69535,0.82638 -0.83332,1.63378 -0.83332,4.87685 0,3.24308 0.13797,4.05047 0.83332,4.87685 0.62623,0.74423 1.58386,0.82706 2.37422,0.20535 z m -21.42313,-7.62534 v -10.47777 h 2.03451 2.03453 l 0.006,3.40781 0.006,3.40783 0.42267,-0.5667 c 0.67596,-0.90628 1.9107,-1.4239 3.42944,-1.43766 1.66474,-0.0151 2.78864,0.55685 3.48614,1.77403 0.47606,0.83076 0.48252,0.92054 0.54722,7.60545 l 0.0654,6.76477 h -2.04057 -2.04056 l -0.0594,-6.08251 c -0.0557,-5.69457 -0.0847,-6.1104 -0.45537,-6.5197 -0.32304,-0.3567 -0.58401,-0.42613 -1.41731,-0.37709 -0.90474,0.0533 -1.0744,0.13904 -1.48598,0.75142 -0.45669,0.67949 -0.46462,0.78987 -0.46462,6.45959 v 5.76829 h -2.03452 -2.03452 z m 31.25525,10.12172 c -0.0571,-0.19582 -0.79525,-3.56041 -1.64045,-7.47685 -0.84518,-3.91645 -1.58462,-7.32681 -1.64318,-7.57858 -0.105,-0.45134 -0.0779,-0.45776 1.9319,-0.45776 1.12112,0 2.03791,0.0687 2.03733,0.15258 -0.002,0.34831 1.66031,10.35016 1.76723,10.63035 0.0803,0.21037 1.98241,-9.54451 2.09402,-10.73896 0.003,-0.0318 0.98746,-0.0318 2.18777,0 l 2.18238,0.0577 1.04294,5.59492 1.04294,5.59492 0.22953,-1.11898 c 0.12625,-0.61544 0.55548,-3.07936 0.95386,-5.47538 0.39837,-2.39601 0.77171,-4.43307 0.82964,-4.5268 0.14063,-0.22754 3.74344,-0.22005 3.74344,0.008 0,0.31709 -3.273,15.35174 -3.37957,15.52416 -0.0932,0.15084 -4.55505,0.25281 -4.55505,0.1041 0,-0.22102 -2.04475,-11.00166 -2.09648,-11.05339 -0.0354,-0.0354 -0.41145,1.9249 -0.8358,4.35611 -0.42434,2.4312 -0.86349,4.9468 -0.97588,5.59021 l -0.20435,1.16985 h -2.30425 c -2.01936,0 -2.31707,-0.0441 -2.40797,-0.35604 z"
       id="path5923" /><path
       style="fill:none;stroke:#000000;stroke-width:2;stroke-linejoin:round;stroke-dasharray:none;stroke-opacity:1"
       d="m 124.16239,130.20385 -69.971884,-0.0681 0.07011,18.45882"
       id="bind:link23" /><path
       style="fill:#000000;stroke:#000000;stroke-width:2;stroke-linejoin:round;stroke-dasharray:none;stroke-opacity:1"
       id="bind:link23arrow"
       d="m -495.98309,170.35796 -18.78915,-32.54375 37.57829,0 z"
       transform="matrix(0.29147563,0,0,0.29147563,198.92004,108.54884)" /><rect
       style="fill:#333333;stroke-width:0.11554"
       id="rect209"
       width="48.527184"
       height="28.191982"
       x="32.671333"
       y="-188.72867"
       ry="8.3189459"
       transform="scale(1,-1)" /><rect
       style="fill:#e6e6e6;stroke-width:0.11554"
       id="rect547"
       width="48.527184"
       height="28.191982"
       x="30.554665"
       y="-186.61203"
       ry="8.3189459"
       transform="scale(1,-1)" /><path
       style="fill:#000000;stroke-width:0.163075"
       d="m 57.508995,180.96961 c -0.493302,-0.0477 -1.056805,-0.19044 -1.252228,-0.31736 -0.718345,-0.46655 -0.772369,-0.82814 -0.835049,-5.58907 l -0.05958,-4.52534 h -0.801934 -0.801938 v -1.05998 -1.05999 h 0.815377 0.815376 v -1.79383 -1.79382 h 1.630753 1.630753 v 1.79382 1.79383 h 0.896913 0.896915 v 1.05999 1.05998 h -0.896915 -0.896913 v 3.80111 c 0,4.30921 0.01413,4.36542 1.108113,4.40774 l 0.683869,0.0264 9.25e-4,1.08685 9.24e-4,1.08685 -1.01922,0.0547 c -0.560571,0.0301 -1.422832,0.0157 -1.916134,-0.0319 z m -8.316838,-6.27334 v -6.2784 h 1.630753 1.630752 v 6.2784 6.2784 H 50.82291 49.192157 Z m 0,-9.29529 v -1.38614 h 1.630753 1.630752 v 1.38614 1.38614 H 50.82291 49.192157 Z"
       id="path5937" /><path
       style="fill:none;stroke:#000000;stroke-width:2;stroke-linejoin:round;stroke-dasharray:none;stroke-opacity:1"
       d="m 54.333584,186.74409 -0.131548,37.01303 39.06651,0.0659"
       id="bind:link34" /><path
       style="fill:#000000;stroke:#000000;stroke-width:2;stroke-linejoin:round;stroke-dasharray:none;stroke-opacity:1"
       id="bind:link34arrow"
       d="m -495.98309,170.35796 -18.78915,-32.54375 37.57829,0 z"
       transform="matrix(0.2526986,0.14526342,-0.14526342,0.2526986,243.63834,258.38536)" /><rect
       style="fill:#333333;stroke-width:0.190847"
       id="rect211"
       width="80.155739"
       height="46.566669"
       x="103.32626"
       y="-247.64996"
       ry="13.740983"
       transform="scale(1,-1)" /><rect
       style="fill:#e6e6e6;stroke-width:0.190847"
       id="rect673"
       width="80.155739"
       height="46.566669"
       x="105.44296"
       y="-245.53333"
       ry="13.740983"
       transform="scale(1,-1)" /><path
       style="fill:#000000;stroke-width:0.112559"
       d="m 136.36527,232.1111 c -3.02974,-0.4835 -4.26293,-2.65404 -4.26965,-7.51496 -0.006,-4.71043 1.30477,-7.07648 4.26206,-7.69041 0.98856,-0.20522 3.30629,-0.0801 4.08159,0.22031 1.80411,0.69908 2.70374,2.08547 3.07349,4.73647 0.21653,1.55243 0.22011,3.52002 0.01,5.06999 -0.48924,3.59628 -2.04117,5.11486 -5.35025,5.23528 -0.65004,0.0236 -1.46296,-0.002 -1.80652,-0.0567 z m 2.38826,-2.65771 c 0.40173,-0.20521 0.84372,-1.14685 0.99608,-2.12217 0.18215,-1.16592 0.15292,-4.78188 -0.0471,-5.82195 -0.29382,-1.52811 -0.79362,-2.11857 -1.79266,-2.11785 -1.04013,8.5e-4 -1.5997,0.60387 -1.8831,2.02958 -0.16737,0.842 -0.16552,5.27203 0.002,6.18072 0.14878,0.80431 0.4223,1.41689 0.77509,1.73593 0.45163,0.40845 1.27974,0.45763 1.94904,0.11574 z m 33.18967,2.64285 c -0.94973,-0.10998 -1.41207,-0.24163 -2.14216,-0.60996 -1.1817,-0.59615 -1.80096,-1.8736 -1.80096,-3.71513 v -0.7261 h 1.6884 1.6884 v 0.58355 c 0,1.27758 0.73164,2.0428 1.95943,2.04932 1.23605,0.006 1.86639,-0.57931 1.86718,-1.73549 8.4e-4,-1.06643 -0.26813,-1.27294 -2.92715,-2.24846 -1.95988,-0.71902 -2.87098,-1.24554 -3.43867,-1.98719 -1.1398,-1.48907 -0.90697,-4.2848 0.46194,-5.54662 1.10287,-1.01659 2.43293,-1.40492 4.55357,-1.3295 2.07928,0.074 3.20638,0.55363 3.97861,1.69326 0.43844,0.64704 0.58287,1.11176 0.698,2.24593 l 0.0771,0.75978 h -1.7578 -1.75778 v -0.44796 c 0,-0.64609 -0.30699,-1.33134 -0.68373,-1.52615 -0.48339,-0.24998 -1.51943,-0.21258 -1.97901,0.0715 -0.70679,0.43682 -0.9292,1.37957 -0.49389,2.0935 0.30661,0.50285 0.50742,0.60818 2.49399,1.3082 2.00681,0.70715 2.55413,0.96223 3.2157,1.49859 1.27444,1.03329 1.60305,3.70003 0.66306,5.38089 -0.704,1.25887 -1.73506,1.8962 -3.49532,2.16056 -1.11819,0.16793 -1.61515,0.17269 -2.86894,0.0275 z m -58.13057,-7.44336 c -0.8612,-3.97742 -1.5884,-7.29499 -1.61602,-7.37238 -0.0389,-0.109 0.37946,-0.14069 1.85676,-0.14069 h 1.90694 l 0.8234,5.03704 c 0.45287,2.77037 0.856,5.1286 0.89583,5.24049 0.0397,0.1119 0.46686,-2.06613 0.94898,-4.84007 0.4821,-2.77393 0.90155,-5.13327 0.93212,-5.24299 0.051,-0.18306 0.22402,-0.19696 2.10063,-0.16884 l 2.04509,0.0307 0.95377,5.1496 c 0.52458,2.83229 0.98079,5.14957 1.01379,5.14951 0.0329,-6e-5 0.38209,-1.91216 0.77573,-4.24913 0.39365,-2.33696 0.79171,-4.6669 0.88459,-5.17764 l 0.16889,-0.92862 h 1.7887 c 0.98378,0 1.78869,0.0209 1.78869,0.0464 0,0.0623 -3.00861,14.03161 -3.10313,14.40822 l -0.0741,0.2954 -2.14925,-0.0306 -2.14924,-0.0305 -0.95462,-5.15086 c -0.52503,-2.83295 -0.98825,-5.11229 -1.02937,-5.06518 -0.041,0.0471 -0.47265,2.37766 -0.95897,5.17899 l -0.88422,5.09333 -2.19957,-2.8e-4 -2.19957,-2.8e-4 z m 31.90064,-0.14041 v -7.37266 h 1.80096 1.80095 v 0.95675 c 0,0.52622 0.0397,0.95676 0.0883,0.95676 0.0486,0 0.18322,-0.1607 0.29924,-0.35709 0.34123,-0.57765 0.96403,-1.20975 1.50344,-1.52585 0.39211,-0.2298 0.69767,-0.30594 1.38826,-0.34592 l 0.88549,-0.0513 v 1.80232 1.80232 l -1.10093,0.0443 c -0.94936,0.0381 -1.17305,0.0865 -1.62477,0.35121 -0.56863,0.33324 -0.88164,0.71082 -1.08411,1.3078 -0.0899,0.26486 -0.12978,1.83252 -0.12978,5.09332 v 4.71072 h -1.91352 -1.91351 z m 9.34245,-2.42005 v -9.79268 h 1.85612 1.85611 l 0.0293,5.19732 0.0293,5.19731 1.91351,-2.77435 1.91351,-2.77435 2.06716,-0.002 2.06716,-0.003 -0.18864,0.28791 c -0.10378,0.15834 -1.01104,1.41197 -2.0162,2.78585 -1.00516,1.37386 -1.86547,2.56018 -1.91181,2.63622 -0.0621,0.10194 3.30187,6.46661 4.73085,8.95092 0.0268,0.0464 -0.88733,0.0844 -2.03119,0.0844 h -2.07975 l -1.55616,-2.9831 c -0.85589,-1.64069 -1.58955,-2.9703 -1.63037,-2.95468 -0.0408,0.0155 -0.35774,0.39638 -0.70428,0.84615 l -0.63008,0.81776 v 2.13693 2.13694 h -1.85723 -1.85724 z"
       id="path5951" /></g></svg>
