<?xml version="1.0" encoding="UTF-8" standalone="no"?>
<!-- Created with Inkscape (http://www.inkscape.org/) -->

<svg
   width="784.62988"
   height="258.28674"
   viewBox="0 0 207.60011 68.338367"
   version="1.1"
   id="svg5"
   xml:space="preserve"
   xmlns="http://www.w3.org/2000/svg"
   xmlns:svg="http://www.w3.org/2000/svg"><defs
     id="defs2" /><g
     id="layer1"
     transform="translate(-2.0333242,-5.5183177)"><g
       id="g540"><g
         id="g4121"
         transform="matrix(0.79045565,0,0,0.79045565,-19.620701,-40.290646)"><path
           style="fill:#000000;stroke-width:0.254456"
           d="m 37.091281,143.03125 c -3.104089,-0.61613 -6.817758,-3.42205 -8.236119,-6.22292 -1.484133,-2.93075 -1.460782,-2.60675 -1.460782,-20.26829 v -16.23901 h 1.78119 c 1.578545,0 1.78119,-0.0548 1.78119,-0.482115 0,-0.265157 0.228198,-1.220918 0.507108,-2.123919 1.076987,-3.486895 3.793713,-5.720913 7.76272,-6.383445 1.260763,-0.210454 3.463784,0.321976 5.161497,1.247443 l 1.599116,0.871717 h 3.680855 c 2.024468,0 3.680855,-0.09252 3.680855,-0.205502 0,-0.113031 -1.242451,-1.429843 -2.760994,-2.926247 -1.962956,-1.934345 -2.937462,-2.720805 -3.371546,-2.720949 -1.026381,-2.5e-4 -3.603532,-1.404406 -4.732548,-2.578354 -0.587691,-0.611089 -1.389134,-1.798087 -1.780988,-2.637798 -0.594769,-1.274524 -0.71209,-1.863013 -0.710166,-3.562389 0.0019,-1.703531 0.122312,-2.296434 0.73796,-3.634144 2.532767,-5.503428 9.653594,-7.053298 14.029849,-3.053645 1.582349,1.446178 2.479342,2.839805 2.912419,4.524919 0.24133,0.939018 0.759321,1.614331 2.878879,3.753225 1.421533,1.434498 2.672529,2.608177 2.77999,2.608177 0.107465,0 0.195903,-1.574449 0.196529,-3.498772 L 63.529353,76.00046 62.574,74.115442 c -0.896752,-1.7694 -0.955219,-2.026925 -0.953178,-4.19853 0.0018,-2.023863 0.09285,-2.498857 0.726432,-3.79396 0.398341,-0.814248 1.148635,-1.926565 1.667316,-2.471813 1.13957,-1.197936 3.808808,-2.496584 5.557043,-2.703638 3.384871,-0.400887 7.295245,1.733238 8.913249,4.864494 0.551367,1.06703 0.680022,1.709995 0.765787,3.827059 0.101853,2.514161 0.09214,2.565513 -0.8127,4.298311 l -0.915788,1.753747 v 3.839953 3.839943 l 2.798514,-2.789837 c 2.203387,-2.196549 2.832217,-2.980258 2.957005,-3.685279 0.25509,-1.441182 1.624257,-3.778911 2.840021,-4.849068 2.402237,-2.114533 6.186489,-2.735351 9.309219,-1.527205 2.032125,0.786206 4.167354,2.920687 4.9391,4.937361 0.67327,1.759388 0.76285,4.629336 0.19473,6.239541 -0.939484,2.662774 -3.204907,4.798744 -5.985279,5.643254 -1.571338,0.477284 -1.877082,0.703241 -4.467424,3.301637 l -2.780518,2.789299 h 3.859209 c 3.846309,0 3.86332,-0.0029 5.088397,-0.76411 0.680168,-0.422812 2.022977,-0.930189 3.006392,-1.13594 1.556503,-0.325669 1.975423,-0.325871 3.373353,-0.0019 2.14657,0.497827 3.26751,1.116514 4.67609,2.580922 1.44422,1.501463 2.19294,2.945376 2.44725,4.719584 l 0.19269,1.344303 1.85245,0.0749 1.85243,0.075 -0.074,16.59191 -0.074,16.59202 -0.71935,1.81814 c -1.30654,3.30225 -4.24416,6.16133 -7.55048,7.34863 -1.36407,0.48985 -2.23061,0.50353 -34.224354,0.54066 -18.053664,0.021 -33.327709,-0.0618 -33.942328,-0.18373 z m 14.390154,-2.7355 c 6.563445,-2.04885 9.758417,-9.51248 6.681377,-15.60806 -1.732931,-3.43291 -4.654985,-5.38811 -9.058586,-6.06124 -2.829565,-0.43251 -3.843453,-0.91885 -4.686289,-2.24787 -2.232912,-3.52093 0.922284,-7.97736 4.891358,-6.9086 1.453521,0.3914 2.885961,1.77821 3.276142,3.17181 l 0.320697,1.14541 h 3.290452 3.290454 l -0.176022,-1.20866 c -0.573377,-3.93713 -2.82223,-7.00028 -6.450951,-8.78682 -1.414158,-0.69623 -1.961715,-0.81739 -4.071305,-0.90094 -2.004186,-0.0793 -2.727614,0.002 -4.070267,0.45508 -2.981441,1.00717 -5.327308,3.108 -6.68683,5.98836 -0.792422,1.67886 -0.84073,1.94201 -0.84073,4.58021 0,2.61842 0.05232,2.90941 0.810445,4.50981 1.586691,3.34943 4.166459,5.30653 8.153873,6.1858 4.146022,0.91426 4.559861,1.07869 5.510814,2.18967 1.507916,1.76165 1.490567,4.03373 -0.04472,5.85832 -1.824372,2.16813 -5.725481,1.92813 -7.190533,-0.44237 -0.314782,-0.50932 -0.64573,-1.28579 -0.735459,-1.72549 l -0.163137,-0.79945 -3.271324,-0.0715 -3.271324,-0.0715 0.166176,1.58989 c 0.434391,4.15611 3.857937,8.10446 8.023203,9.25312 1.756426,0.48437 4.582991,0.44178 6.302486,-0.095 z m 26.239916,-18.1751 c 2.130434,-10.2514 3.873217,-18.78548 3.872853,-18.9646 -5.08e-4,-0.25126 -0.741935,-0.30939 -3.244975,-0.25445 l -3.244316,0.0712 -2.197985,10.63745 c -1.208891,5.8506 -2.256882,10.69634 -2.328867,10.76833 -0.07199,0.072 -0.246083,-0.42091 -0.386878,-1.09534 -0.140796,-0.67443 -1.147404,-5.5488 -2.236907,-10.83195 l -1.980913,-9.60572 h -3.258752 c -1.792316,0 -3.258754,0.10414 -3.258754,0.23141 0,0.12728 0.409043,2.15975 0.908986,4.51659 0.499943,2.35686 1.067031,5.08674 1.260194,6.06639 0.193163,0.97966 0.819921,4.01404 1.392799,6.74309 0.572878,2.72904 1.724224,8.28255 2.558547,12.34112 0.834324,4.05858 1.569758,7.52237 1.634298,7.69731 0.08552,0.23179 1.001548,0.31807 3.377253,0.31807 h 3.259904 z m 19.730191,17.67974 c 2.878788,-1.34715 5.030798,-3.72259 6.012498,-6.6367 0.49121,-1.45814 0.52523,-2.05568 0.46232,-8.1215 l -0.0679,-6.54755 h -5.470802 -5.470809 l -0.07114,3.23467 -0.07115,3.23468 2.361252,0.0733 2.361249,0.0733 0.07632,2.16288 c 0.127025,3.59961 -0.589331,5.38989 -2.558712,6.39459 -1.472665,0.7513 -3.608242,0.58525 -4.87223,-0.37884 -1.801924,-1.3744 -1.796767,-1.34459 -1.884691,-10.89374 -0.08868,-9.63077 -0.01463,-10.22851 1.448458,-11.6916 1.944066,-1.94406 4.962283,-1.82114 6.725133,0.27389 0.641013,0.76179 0.739818,0.98524 1.048867,2.372 l 0.15768,0.70753 3.110285,-0.0714 3.11028,-0.0714 -0.0321,-1.52673 c -0.0794,-3.77276 -3.19828,-7.58762 -7.411015,-9.06486 -1.187954,-0.41657 -1.940898,-0.49551 -4.007362,-0.42014 -2.249514,0.082 -2.745376,0.18968 -4.276424,0.92827 -3.378025,1.62956 -5.727794,4.85141 -6.301048,8.63957 -0.18216,1.20375 -0.244811,4.94431 -0.176872,10.55993 0.09699,8.01693 0.146373,8.80728 0.632423,10.12242 1.040942,2.81654 2.882205,4.96417 5.412039,6.31256 2.007718,1.07011 3.059441,1.28801 5.763717,1.19418 1.960283,-0.068 2.587764,-0.20316 3.989774,-0.85924 z m 10.229508,-39.76312 c 0.31664,-0.512335 -0.7162,-3.056951 -1.68969,-4.162895 -1.10566,-1.256099 -2.16545,-1.83346 -4.00623,-2.182556 -1.57062,-0.297866 -3.744228,0.200125 -4.976733,1.140201 l -0.831657,0.634334 h -6.909914 c -3.800453,0 -6.909912,-0.0853 -6.909912,-0.189499 0,-0.104222 2.186119,-2.337076 4.858044,-4.96189 3.987774,-3.917468 4.986626,-4.772403 5.575805,-4.772403 0.394768,0 1.433198,-0.372139 2.307627,-0.826977 3.365705,-1.750703 4.643421,-5.74006 2.911256,-9.089697 -0.669657,-1.294981 -2.816263,-2.982562 -4.223112,-3.32006 -2.781288,-0.66722 -5.671811,0.385333 -7.191067,2.618549 -0.497841,0.731795 -0.960959,1.616803 -1.029156,1.966678 -0.0682,0.349875 -0.189086,0.944952 -0.268644,1.3224 -0.0949,0.450231 -1.828813,2.362523 -5.041478,5.560131 l -4.89682,4.873884 -0.06772,-6.907623 -0.06773,-6.907622 0.6617,-0.867533 c 0.793072,-1.039769 1.382245,-2.874035 1.38197,-4.302466 -2.55e-4,-1.450854 -1.232602,-3.941408 -2.448681,-4.948852 -2.842143,-2.354533 -7.094889,-1.920229 -9.57557,0.977887 -1.980041,2.313233 -1.953895,6.019175 0.06053,8.580105 0.485331,0.616995 0.513391,1.018505 0.513391,7.346429 0,3.681566 -0.09332,6.751428 -0.207365,6.821913 -0.114049,0.0705 -2.391094,-2.069726 -5.0601,-4.756034 -4.491147,-4.520267 -4.864925,-4.966766 -5.016268,-5.992349 -0.463098,-3.138193 -3.388252,-5.634938 -6.601815,-5.634938 -2.884095,0 -5.626779,2.019663 -6.412353,4.721925 -0.450193,1.548626 -0.368687,3.718314 0.179688,4.783328 1.052761,2.044587 3.109562,3.620064 5.064584,3.879403 1.147481,0.152221 1.386018,0.350606 6.122595,5.091858 l 4.928595,4.933453 -6.995099,-0.0048 -6.995101,-0.0048 -1.091567,-0.739825 c -3.742386,-2.536452 -9.005556,-0.629343 -10.207201,3.698579 -0.151876,0.54702 -0.276785,1.194962 -0.277564,1.439884 -9.61e-4,0.422068 1.936038,0.445298 37.134164,0.445298 25.354793,0 37.187308,-0.0837 37.298598,-0.26375 z"
           id="path197" /><path
           style="fill:#ffb03a;fill-opacity:1;stroke:#000000;stroke-width:2.5319;stroke-linejoin:round"
           d="m 33.668008,99.498764 c -0.310164,-0.808273 1.043388,-3.305559 2.300819,-4.244981 2.431593,-1.816634 4.851792,-1.939954 7.532333,-0.383809 1.362078,0.79073 1.59,0.812423 8.53701,0.812423 h 7.13757 l -5.014955,-5.023332 c -4.506742,-4.514269 -5.195011,-5.075673 -6.791721,-5.53985 -4.154053,-1.207616 -6.136574,-5.501024 -4.247634,-9.19881 1.018618,-1.994048 3.751488,-3.691589 5.919722,-3.677082 2.717368,0.01819 5.560244,2.418697 6.286758,5.308515 0.340625,1.354893 1.005773,2.163529 5.270406,6.407345 l 4.880584,4.856759 0.312029,-1.152709 c 0.171616,-0.633993 0.251362,-3.79926 0.177214,-7.03393 -0.128712,-5.615009 -0.175382,-5.955804 -1.031039,-7.528992 -2.788883,-5.127552 1.616715,-10.834977 7.257935,-9.402615 1.895058,0.481174 3.280895,1.71816 4.26107,3.80339 0.881643,1.87562 0.708269,3.83378 -0.525897,5.939728 -0.818069,1.395934 -0.836018,1.574493 -0.836018,8.317106 0,3.7898 0.123665,6.890547 0.274817,6.890547 0.15115,0 2.463215,-2.223225 5.137924,-4.940496 3.677083,-3.735603 4.915796,-5.209841 5.079154,-6.044897 0.319648,-1.633965 2.029326,-3.909053 3.477129,-4.627047 0.808183,-0.400796 1.966363,-0.626618 3.179956,-0.620036 1.581845,0.0086 2.155585,0.185781 3.349491,1.034479 3.74887,2.664912 3.874943,7.857613 0.254451,10.480285 -0.772735,0.559765 -1.946638,1.119373 -2.608677,1.243571 -0.966412,0.1813 -2.184201,1.187516 -6.177433,5.104185 -4.092671,4.014199 -4.866279,4.920742 -4.367145,5.117584 0.333618,0.131569 3.521984,0.24981 7.085256,0.262759 5.882445,0.02137 6.55325,-0.03512 7.289025,-0.61388 0.44569,-0.350582 1.544122,-0.813451 2.440955,-1.028599 2.100973,-0.504016 3.958673,-0.03264 5.620003,1.426031 1.13444,0.996044 2.43077,3.207454 2.44779,4.175639 0.006,0.332457 -7.583003,0.418685 -36.847544,0.418685 -33.53316,0 -36.873508,-0.04848 -37.061338,-0.537966 z"
           id="path2959" /><path
           style="fill:#ffffff;fill-opacity:1;stroke:none;stroke-width:4.32451;stroke-linejoin:round"
           d="m 171.46626,530.32297 c -11.32067,-2.96601 -21.6197,-11.58138 -26.94474,-22.53988 -2.39381,-4.92629 -3.2475,-7.97988 -3.9918,-14.27838 l -0.46481,-3.93336 3.42287,0.35776 c 1.88258,0.19676 7.33451,0.35776 12.1154,0.35776 h 8.69254 l 0.67369,3.0035 c 1.57815,7.03587 5.95236,11.62606 12.73486,13.36365 8.54823,2.18996 17.0628,-1.91479 20.68845,-9.97359 1.72438,-3.8328 1.66352,-9.7897 -0.13545,-13.25872 -3.71494,-7.16368 -5.75847,-8.37514 -20.17394,-11.95965 -19.60519,-4.87497 -27.17359,-10.22463 -34.07053,-24.08245 l -2.70492,-5.43491 -0.18936,-10.15562 c -0.16948,-9.08874 -0.0636,-10.53367 1.00818,-13.75427 1.95153,-5.86435 6.04246,-12.25888 10.87265,-16.99503 9.94774,-9.75406 20.86851,-13.2444 36.03931,-11.51836 4.55352,0.51807 6.20972,1.01791 10.61184,3.20262 14.02705,6.96145 22.29422,18.68255 24.52776,34.77521 l 0.29776,2.14537 H 212.3057 200.13539 l -0.94654,-3.40453 c -1.3092,-4.70892 -4.83569,-8.92244 -9.48006,-11.32696 -3.07733,-1.59323 -4.17772,-1.85852 -7.689,-1.85373 -9.51955,0.013 -16.27299,6.46078 -16.84804,16.08557 -0.36433,6.09775 0.86003,9.56551 4.75113,13.45661 3.38691,3.38691 5.91907,4.32818 17.4112,6.47222 16.50511,3.0793 26.57123,10.47026 32.89196,24.15065 10.75596,23.27985 -3.71018,52.11396 -28.81571,57.4359 -5.43862,1.1529 -14.86456,0.99344 -19.94407,-0.33738 z"
           id="path4109"
           transform="scale(0.26458333)" /><path
           style="fill:#ffffff;fill-opacity:1;stroke:none;stroke-width:4.32451;stroke-linejoin:round"
           d="m 255.07131,531.04 c -0.36075,-0.23118 -0.92852,-1.45009 -1.2617,-2.7087 -0.6253,-2.36212 -26.34445,-126.26671 -28.45416,-137.08078 -0.26471,-1.35686 -0.0921,-1.52681 1.88194,-1.85302 2.07262,-0.3425 21.91072,-0.53944 21.91072,-0.21752 0,1.42282 16.68356,80.26091 17.06548,80.64282 0.30763,0.30764 0.67522,0.3222 0.85345,0.0338 0.39794,-0.64387 4.71158,-20.72601 11.5732,-53.87894 2.9559,-14.28186 5.49993,-26.09258 5.65339,-26.24605 0.39997,-0.39997 23.03357,-0.48606 23.43768,-0.0891 0.33362,0.32768 -2.14831,13.02558 -9.88752,50.58593 -5.83809,28.33373 -18.31404,88.46155 -18.6663,89.9622 -0.30113,1.28288 -0.34112,1.28719 -11.87621,1.27846 -6.36573,-0.005 -11.86922,-0.1979 -12.22997,-0.42907 z"
           id="path4111"
           transform="scale(0.26458333)" /><path
           style="fill:#ffffff;fill-opacity:1;stroke:none;stroke-width:4.32451;stroke-linejoin:round"
           d="m 341.35164,530.60054 c -7.50442,-1.62891 -17.2592,-7.80336 -22.44432,-14.20652 -3.44798,-4.25795 -7.04583,-11.01778 -8.29383,-15.58289 -1.3205,-4.83033 -2.37151,-49.50355 -1.55155,-65.94856 0.51456,-10.31994 0.78005,-12.37013 2.12036,-16.37384 2.29101,-6.84365 5.72791,-12.45506 10.65723,-17.40006 6.96741,-6.98955 14.06179,-10.56057 23.01284,-11.58372 15.04892,-1.72016 25.48946,1.73795 35.65126,11.80838 7.86213,7.79143 10.93619,14.07292 11.50994,23.51922 l 0.31581,5.19963 -7.37278,0.37599 c -4.05503,0.2068 -9.22933,0.37705 -11.49843,0.37832 l -4.12565,0.002 -0.60312,-2.43141 c -1.35361,-5.45691 -2.06194,-6.94481 -4.55494,-9.56803 -4.10433,-4.3187 -6.76331,-5.44051 -12.90709,-5.44541 -4.64211,-0.004 -5.45042,0.16293 -8.21268,1.69291 -3.93741,2.18089 -7.27118,5.98849 -8.48016,9.68546 -1.94877,5.95914 -1.59858,65.70066 0.42624,72.71575 0.83828,2.90425 4.35067,6.29445 8.47988,8.18486 2.39583,1.09685 4.1123,1.44548 7.18366,1.45906 4.65886,0.0206 7.61171,-0.83024 11.06181,-3.18737 5.75061,-3.92886 8.11452,-12.22731 7.23277,-25.39046 l -0.39872,-5.9523 -3.21148,-0.003 c -1.76632,-0.002 -5.72156,-0.16928 -8.78943,-0.37244 l -5.57794,-0.36937 0.003,-5.49165 c 10e-4,-3.02042 0.16948,-8.3879 0.37345,-11.92775 l 0.37086,-6.43609 h 20.15564 20.15564 l 0.42364,19.77041 c 0.56804,26.51006 0.15588,31.50549 -3.22341,39.06764 -5.53633,12.38915 -18.52637,22.58342 -30.79505,24.16721 -5.44344,0.70271 -12.93305,0.54653 -17.09305,-0.35643 z"
           id="path4113"
           transform="scale(0.26458333)" /></g><path
         style="fill:#000000;stroke-width:0.0175236"
         d="m 91.093228,53.45424 -0.98584,-1.201777 -0.04932,0.02956 c -0.02719,0.01628 -0.194151,0.126655 -0.371095,0.245278 -1.8498,1.240154 -3.991287,2.153091 -5.995013,2.555717 -4.218543,0.847661 -7.777736,-0.351618 -9.50436,-3.202507 -0.121034,-0.199835 -0.332331,-0.605149 -0.400231,-0.767706 l -0.03075,-0.07359 0.160471,0.103076 c 3.102166,1.993734 7.893324,1.650669 12.317615,-0.882014 0.430924,-0.246678 0.877287,-0.527677 1.367891,-0.861146 l 0.10551,-0.07169 -0.995824,-1.213958 c -0.547699,-0.667674 -0.991255,-1.217705 -0.985643,-1.222297 0.0047,-0.0047 1.59442,0.148044 3.530713,0.339192 l 3.520539,0.347548 -0.349358,3.539004 -0.349373,3.539004 z"
         id="bind:arrow12" /><g
         id="g4243"
         transform="matrix(0.79045565,0,0,0.79045565,-6.6539324,-40.290646)"><path
           style="fill:#000000;stroke-width:0.0376457"
           d="m 161.91494,63.609242 c 7.1e-4,0.05078 -0.11868,0.38931 -0.26598,0.752253 l -0.2678,0.659906 0.0874,0.122601 c 0.0843,0.118266 0.11314,0.125999 0.81866,0.219481 0.71936,0.09533 0.73277,0.09902 0.82687,0.227907 0.1469,0.201202 0.10933,0.314322 -0.31922,0.962545 l -0.3732,0.564415 0.0462,0.156504 c 0.0526,0.178196 -0.0513,0.127917 0.9208,0.445124 0.51692,0.168654 0.60497,0.227992 0.64794,0.43671 0.0324,0.156945 -0.069,0.300034 -0.56603,0.800384 l -0.46476,0.467758 0.011,0.146945 c 0.006,0.08083 0.0355,0.165173 0.065,0.187453 0.0296,0.02226 0.30389,0.179553 0.60972,0.349499 0.64186,0.356712 0.72382,0.438256 0.68573,0.682406 l -0.0251,0.161283 -0.61686,0.426215 -0.61687,0.426221 -0.003,0.149584 -0.003,0.149585 0.48348,0.414485 c 0.58626,0.502629 0.67458,0.61262 0.6449,0.802998 -0.0298,0.190383 -0.14734,0.268243 -0.85885,0.568426 l -0.58672,0.247548 -0.0425,0.143435 -0.0426,0.143436 0.45774,0.593857 0.45773,0.593856 -0.0251,0.161282 c -0.038,0.244157 -0.14097,0.296868 -0.86099,0.441128 -0.34306,0.06872 -0.65228,0.134964 -0.68721,0.147188 -0.0348,0.01219 -0.0886,0.08367 -0.11905,0.158735 l -0.0555,0.136504 0.30022,0.587095 c 0.32116,0.628005 0.37396,0.795111 0.29536,0.934754 -0.10453,0.185708 -0.20645,0.215414 -0.75017,0.218614 -1.02263,0.006 -0.90826,-0.01022 -1.01262,0.143515 l -0.0917,0.135003 0.18355,0.651266 c 0.21082,0.747967 0.21209,0.867136 0.0111,1.014038 -0.12887,0.0941 -0.14278,0.09354 -0.85698,-0.03476 -0.6735,-0.120986 -0.73383,-0.124571 -0.83454,-0.0496 -0.13202,0.09847 -0.13211,0.09747 -0.0732,0.847421 0.0256,0.327347 0.0359,0.650193 0.0229,0.717424 -0.0275,0.142056 -0.19864,0.286458 -0.3426,0.289283 -0.0509,9.71e-4 -0.38932,-0.118549 -0.75203,-0.265672 l -0.65952,-0.267486 -0.12287,0.08711 c -0.11868,0.08407 -0.12611,0.112198 -0.21972,0.818365 -0.0953,0.719349 -0.099,0.732757 -0.22788,0.826853 -0.20122,0.1469 -0.31433,0.109389 -0.96256,-0.31922 l -0.56441,-0.373191 -0.1565,0.0462 c -0.17819,0.0526 -0.12793,-0.05142 -0.44512,0.9208 -0.16865,0.516914 -0.22799,0.604953 -0.43671,0.647941 -0.15695,0.03233 -0.30004,-0.06886 -0.80039,-0.566024 l -0.46777,-0.464764 -0.14694,0.01133 c -0.0809,0.0063 -0.16518,0.03551 -0.18745,0.06504 -0.0223,0.02951 -0.17956,0.303901 -0.34951,0.609712 -0.35671,0.641886 -0.43824,0.723827 -0.68242,0.685741 l -0.16127,-0.02515 -0.42623,-0.616867 -0.42623,-0.616867 -0.14959,-0.0031 -0.14959,-0.0031 -0.41448,0.483464 c -0.50263,0.58626 -0.61263,0.674593 -0.803,0.644893 -0.19039,-0.0297 -0.26823,-0.147333 -0.56842,-0.85883 l -0.24755,-0.586735 -0.14344,-0.04258 -0.14344,-0.04258 -0.59384,0.45775 -0.59386,0.457748 -0.16129,-0.02515 c -0.24414,-0.0381 -0.29687,-0.140974 -0.44113,-0.861011 -0.0687,-0.343039 -0.13496,-0.652274 -0.14718,-0.687193 -0.0123,-0.0349 -0.0836,-0.08848 -0.15873,-0.119043 l -0.13651,-0.05557 -0.5871,0.300221 c -0.62801,0.321146 -0.7951,0.373948 -0.93474,0.295356 -0.18571,-0.104514 -0.21531,-0.206565 -0.21862,-0.750173 -0.006,-1.022626 0.01,-0.908252 -0.14352,-1.012625 l -0.13499,-0.09167 -0.65127,0.183557 c -0.74796,0.210808 -0.86714,0.212088 -1.01404,0.01084 -0.0941,-0.128863 -0.0936,-0.142763 0.0347,-0.856977 0.12582,-0.700414 0.12724,-0.730232 0.0404,-0.84663 l -0.0901,-0.120656 -0.7101,0.05407 c -0.39058,0.02974 -0.74946,0.04064 -0.79753,0.02421 -0.1124,-0.03839 -0.24472,-0.219666 -0.24705,-0.338382 -7e-4,-0.05078 0.11868,-0.389304 0.26597,-0.752255 l 0.2678,-0.659902 -0.0874,-0.1226 c -0.0843,-0.118267 -0.11327,-0.125998 -0.81868,-0.219486 -0.71935,-0.09533 -0.73276,-0.09902 -0.82686,-0.227902 -0.14689,-0.201202 -0.10945,-0.314321 0.31922,-0.962544 l 0.37319,-0.564417 -0.0462,-0.156507 c -0.0526,-0.178191 0.0513,-0.127914 -0.92078,-0.44512 -0.51692,-0.168659 -0.60496,-0.227992 -0.64794,-0.436709 -0.0324,-0.156947 0.0688,-0.300034 0.56602,-0.800386 l 0.46477,-0.467757 -0.011,-0.146944 c -0.006,-0.08083 -0.0354,-0.165173 -0.065,-0.187454 -0.0296,-0.02226 -0.3039,-0.179552 -0.60973,-0.349498 -0.64187,-0.356712 -0.72382,-0.438256 -0.68572,-0.682407 l 0.0251,-0.161281 0.61686,-0.426216 0.61688,-0.426219 0.003,-0.149589 0.003,-0.149586 -0.48347,-0.414485 c -0.59091,-0.506595 -0.67466,-0.61181 -0.64412,-0.809185 0.0212,-0.136968 0.034,-0.151733 0.23353,-0.270684 0.11609,-0.0692 0.43576,-0.21747 0.7103,-0.329494 l 0.49919,-0.203683 0.0435,-0.146394 0.0435,-0.1464 -0.45774,-0.593859 -0.45774,-0.593858 0.0251,-0.161283 c 0.038,-0.244342 0.14094,-0.296944 0.86134,-0.440643 0.34325,-0.06845 0.65574,-0.138565 0.69444,-0.155779 0.0388,-0.01719 0.0929,-0.08728 0.12054,-0.155648 0.0491,-0.121923 0.0442,-0.135865 -0.25192,-0.71501 -0.32289,-0.631521 -0.3758,-0.798559 -0.29714,-0.938321 0.10453,-0.185712 0.20644,-0.215412 0.75017,-0.218616 1.02264,-0.006 0.90826,0.01022 1.01263,-0.143516 l 0.0917,-0.135002 -0.18354,-0.651266 c -0.21081,-0.747964 -0.21209,-0.867138 -0.0111,-1.014038 0.12888,-0.0941 0.14278,-0.09354 0.85698,0.03477 0.70118,0.125997 0.73014,0.127364 0.84644,0.04004 l 0.12041,-0.09049 -0.0539,-0.709648 c -0.0296,-0.390305 -0.0403,-0.74905 -0.024,-0.797215 0.0384,-0.112517 0.21964,-0.244883 0.33844,-0.247232 0.0508,-9.7e-4 0.38931,0.118697 0.75224,0.265984 l 0.65991,0.267797 0.12263,-0.08743 c 0.11832,-0.08431 0.12599,-0.113244 0.2195,-0.818681 0.0953,-0.719348 0.099,-0.732757 0.22788,-0.826851 0.20121,-0.146902 0.31434,-0.109377 0.96256,0.31922 l 0.56441,0.373195 0.1565,-0.0462 c 0.17821,-0.0526 0.12793,0.05141 0.44514,-0.920801 0.16865,-0.516917 0.22799,-0.604952 0.43669,-0.647943 0.15709,-0.03235 0.30008,0.06891 0.80325,0.568823 0.46144,0.458448 0.47323,0.46737 0.60433,0.457705 0.0735,-0.0054 0.15675,-0.03574 0.18494,-0.06737 0.0282,-0.03162 0.19013,-0.307917 0.35988,-0.613993 0.35629,-0.64242 0.43772,-0.724343 0.68205,-0.686226 l 0.1613,0.02516 0.42622,0.616867 0.42621,0.616865 0.1527,0.0032 0.15268,0.0032 0.34603,-0.413435 c 0.19032,-0.227388 0.42891,-0.48668 0.53018,-0.576204 0.17411,-0.153878 0.19205,-0.161521 0.32894,-0.139987 0.1973,0.03102 0.27202,0.142851 0.57457,0.85997 l 0.24755,0.586737 0.14343,0.04258 0.14344,0.04258 0.59385,-0.45775 0.59386,-0.45775 0.16127,0.02516 c 0.24415,0.03808 0.29688,0.140968 0.44113,0.861008 0.0687,0.343037 0.13497,0.652278 0.1472,0.687189 0.0123,0.03493 0.0836,0.08848 0.15874,0.119043 l 0.13649,0.05557 0.58709,-0.30022 c 0.62801,-0.321148 0.79512,-0.373945 0.93476,-0.295351 0.18571,0.104514 0.2153,0.206563 0.21862,0.750166 0.006,1.022627 -0.01,0.908254 0.1435,1.012624 l 0.135,0.09168 0.65127,-0.183556 c 0.74796,-0.210805 0.86714,-0.212085 1.01403,-0.01084 0.0941,0.128865 0.0936,0.142765 -0.0347,0.856983 -0.12581,0.700422 -0.12723,0.73024 -0.0403,0.846639 l 0.0901,0.120655 0.71011,-0.05408 c 0.39057,-0.02974 0.74945,-0.04064 0.79753,-0.02421 0.0481,0.01641 0.12287,0.0785 0.16633,0.137939 0.0435,0.05944 0.0797,0.149645 0.0808,0.200437 z m -4.01566,0.784715 c -0.62671,-0.606946 -1.3881,-1.194494 -1.89219,-1.459706 l -0.22095,-0.116247 -0.20924,0.09648 c -0.8988,0.41439 -1.59964,0.711405 -1.70491,0.722521 -0.069,0.0073 -0.20395,-0.0078 -0.30017,-0.03338 -0.27388,-0.07298 -0.37557,-0.218471 -0.76645,-1.096687 -0.18322,-0.411624 -0.35179,-0.773969 -0.3746,-0.805214 -0.0443,-0.06077 -0.41395,-0.114511 -1.01139,-0.147081 l -0.3692,-0.02012 1.21015,1.657494 c 0.78523,1.075496 1.23798,1.719883 1.28938,1.835175 0.15785,0.354076 0.0585,1.038317 -0.22721,1.564947 -0.13052,0.240571 -0.42795,0.617951 -0.87176,1.106154 -0.85363,0.938966 -1.02072,1.183643 -1.09555,1.604195 -0.0233,0.130753 -0.0338,0.32331 -0.0232,0.427894 0.0389,0.385165 0.12078,0.527478 0.98393,1.709661 l 0.79449,1.088166 0.72928,-0.532462 0.72929,-0.532461 -0.71899,-1.001597 -0.71898,-1.001602 1.18394,-0.87657 1.18392,-0.876609 0.0686,0.0553 c 0.0376,0.03042 1.1202,1.495197 2.40547,3.25506 1.28524,1.759862 2.347,3.192174 2.35947,3.182922 0.0287,-0.02128 0.2535,-0.925198 0.27432,-1.102759 l 0.0155,-0.132481 -0.63663,-0.573094 c -0.35016,-0.315191 -0.6691,-0.618231 -0.70879,-0.673374 -0.0833,-0.115829 -0.14658,-0.349541 -0.13205,-0.488002 0.0226,-0.215858 0.0698,-0.276762 1.11589,-1.442345 l 0.32952,-0.367155 -0.0662,-0.301291 c -0.15735,-0.716761 -0.49582,-1.624403 -0.87439,-2.344753 -0.28935,-0.550592 -0.2842,-0.542746 -0.86855,-1.323546 -0.43341,-0.579076 -0.62377,-0.807309 -0.88194,-1.057426 z m -3.17393,-3.312313 c -0.15065,-0.11914 -0.42886,-0.17945 -0.63297,-0.137172 -0.48433,0.100316 -0.78064,0.689637 -0.5554,1.104587 0.12767,0.235215 0.2916,0.36954 0.51564,0.422514 0.48063,0.113649 0.89483,-0.155674 0.96881,-0.629952 0.0493,-0.315287 -0.0474,-0.563283 -0.29608,-0.759977 z m 6.7075,9.416169 c -0.20327,-0.07533 -0.57272,-0.03862 -0.72415,0.07194 -0.2574,0.187924 -0.39598,0.564905 -0.31584,0.859162 0.14696,0.539794 0.77039,0.766666 1.21491,0.44212 0.19916,-0.145419 0.25711,-0.232896 0.30937,-0.467079 0.0881,-0.394199 -0.11178,-0.768125 -0.48429,-0.906141 z m -12.81318,-6.98944 c -0.29251,-0.261175 -0.72093,-0.341991 -1.10015,-0.207526 -0.10355,0.03675 -0.36559,0.183102 -0.58225,0.325277 -0.22929,0.150455 -0.41344,0.251342 -0.44064,0.24141 -0.0259,-0.0093 -0.18281,-0.203057 -0.34914,-0.430324 l -0.30242,-0.413239 -0.28059,0.173571 c -0.34966,0.216257 -1.02082,0.759341 -1.0473,0.847475 -0.0111,0.03613 0.0747,0.500096 0.19023,1.031053 0.13681,0.62898 0.20218,1.023654 0.18759,1.132638 -0.0285,0.213226 -0.17213,0.437421 -0.33702,0.526327 -0.0691,0.03727 -0.6406,0.179049 -1.26993,0.31505 -0.62932,0.136004 -1.16274,0.260794 -1.18538,0.277312 -0.0471,0.03439 -0.2152,0.443439 -0.36603,0.890657 -0.73868,2.190254 -0.66208,4.601671 0.21526,6.777038 0.0938,0.232581 0.19044,0.450125 0.21476,0.483432 0.0265,0.03627 0.31912,0.108836 0.72954,0.180908 1.3922,0.244491 1.40097,0.24732 1.59619,0.514685 0.16811,0.230248 0.1659,0.403994 -0.0176,1.377256 -0.10551,0.55987 -0.14735,0.886242 -0.11869,0.925631 0.063,0.08629 0.68449,0.595796 0.9925,0.81355 0.9414,0.665516 2.14254,1.222007 3.22223,1.492881 0.45436,0.113983 1.40152,0.281863 1.4384,0.254938 0.0133,-0.0097 -1.41809,-2.000808 -3.18078,-4.42472 l -3.20489,-4.407122 -0.11178,-0.332262 c -0.2689,-0.799478 -0.32705,-1.367681 -0.21376,-2.088486 0.14003,-0.89089 0.41741,-1.396409 1.03458,-1.885539 0.38282,-0.303409 0.65223,-0.423659 1.12246,-0.501078 0.51249,-0.08437 1.38707,0.03371 2.04396,0.27598 0.16357,0.06033 0.30788,0.102015 0.32071,0.09264 0.0128,-0.0093 0.029,-0.155333 0.0361,-0.324369 0.0372,-0.896417 0.30095,-1.494095 1.01997,-2.311237 0.18152,-0.206297 0.24865,-0.311275 0.26859,-0.420026 0.027,-0.146778 7.1e-4,-0.402636 -0.0581,-0.572598 -0.0485,-0.139509 -0.30573,-0.48743 -0.46672,-0.631194 z m 5.90832,13.403241 -2.52163,1.829169 0.41081,0.562654 c 0.22594,0.309458 0.4162,0.55872 0.42278,0.553909 0.006,-0.0048 0.11647,-0.191961 0.24404,-0.41589 0.32406,-0.568558 0.56608,-0.740739 0.94061,-0.669131 0.0687,0.01312 0.50902,0.242774 0.97855,0.510332 0.78554,0.447619 0.86256,0.483298 0.9646,0.44683 0.0609,-0.02182 0.39249,-0.242898 0.73663,-0.491357 0.77324,-0.558218 1.32713,-1.072531 1.85456,-1.722103 l 0.15369,-0.18928 -0.83148,-1.122135 -0.8315,-1.122137 z m -5.61481,-5.597253 c -0.37033,-0.365838 -0.73512,-0.524219 -1.05483,-0.458002 -0.50711,0.105043 -0.69687,0.670814 -0.45615,1.360153 0.0472,0.135415 0.27017,0.459274 1.07492,1.562072 l 1.01524,1.391249 0.74491,-0.543865 0.7449,-0.543867 -0.94921,-1.299616 c -0.53841,-0.737167 -1.02305,-1.372536 -1.11979,-1.468111 z M 143.53801,64.7514 c -0.54064,-0.327352 -1.2357,0.06205 -1.22047,0.683783 0.006,0.265088 0.18762,0.560313 0.41408,0.674892 0.3037,0.153657 0.7119,0.09425 0.93673,-0.136321 0.34021,-0.348932 0.27314,-0.978045 -0.13034,-1.222354 z m 11.06818,15.274521 c -0.27867,-0.139082 -0.56697,-0.111963 -0.82683,0.07777 -0.58367,0.426151 -0.32124,1.351592 0.3991,1.407382 0.5726,0.04434 0.98723,-0.504211 0.80265,-1.061891 -0.0447,-0.135182 -0.24048,-0.356167 -0.37492,-0.423256 z m -11.36033,-3.395122 c -0.60637,-0.33643 -1.31757,0.203416 -1.15617,0.877611 0.0964,0.402811 0.50984,0.658266 0.92967,0.574456 0.54802,-0.109415 0.80391,-0.779469 0.47151,-1.234734 -0.0549,-0.07525 -0.1652,-0.173042 -0.24501,-0.217319 z"
           id="bind:cog1" /><path
           style="fill:#000000;stroke-width:0.0389962"
           d="m 131.25479,78.125695 c 0.0493,0.01847 0.32912,0.263504 0.6219,0.544413 l 0.53234,0.510747 0.15148,-0.0372 c 0.14618,-0.03581 0.16467,-0.06069 0.52515,-0.70364 0.36757,-0.655663 0.37626,-0.667148 0.53636,-0.708278 0.24996,-0.06421 0.34442,0.01521 0.80383,0.676271 l 0.40004,0.575552 0.16831,0.01558 c 0.19164,0.01772 0.10342,0.09852 0.78142,-0.71539 0.36051,-0.432748 0.45137,-0.494712 0.6687,-0.456046 0.16343,0.02903 0.26231,0.181308 0.55316,0.851585 l 0.2719,0.626621 0.14574,0.04549 c 0.0802,0.02501 0.17257,0.02915 0.20533,0.0088 0.0328,-0.01985 0.28932,-0.223594 0.57012,-0.452703 0.58939,-0.48089 0.69928,-0.528479 0.91963,-0.398203 l 0.14554,0.08608 0.17361,0.757048 0.17362,0.757035 0.14274,0.06044 0.14275,0.06044 0.58424,-0.306279 c 0.70847,-0.371424 0.84819,-0.41425 1.02001,-0.312664 0.1718,0.101536 0.20161,0.244642 0.21766,1.044403 l 0.0132,0.659532 0.12165,0.09601 0.12164,0.09601 0.74699,-0.212748 0.74698,-0.212761 0.14555,0.08608 c 0.22035,0.130276 0.23162,0.249493 0.0944,0.997681 -0.0653,0.35647 -0.12026,0.679438 -0.12189,0.717728 -0.001,0.03833 0.0466,0.117244 0.10706,0.175426 l 0.11008,0.105809 0.68008,-0.06371 c 0.72746,-0.06824 0.90851,-0.05492 1.01275,0.07427 0.13863,0.171783 0.12813,0.281261 -0.0773,0.805705 -0.38633,0.986371 -0.35808,0.870095 -0.25019,1.029461 l 0.0948,0.139989 0.6971,0.07314 c 0.80059,0.08394 0.91576,0.128416 0.97996,0.378361 0.0411,0.160095 0.0353,0.173252 -0.36206,0.811334 -0.37469,0.601703 -0.40127,0.658377 -0.36776,0.784053 0.044,0.164833 0.0432,0.164481 0.78737,0.395438 0.32486,0.100782 0.63948,0.214709 0.69915,0.253074 0.12611,0.08105 0.19947,0.301002 0.14701,0.440614 -0.0186,0.04939 -0.26338,0.329167 -0.54402,0.6218 l -0.51031,0.532072 0.0367,0.1516 c 0.0356,0.14641 0.0596,0.16438 0.70327,0.52523 0.65566,0.36758 0.66714,0.37627 0.70827,0.53637 0.0642,0.24995 -0.0152,0.34442 -0.67628,0.80384 l -0.57554,0.40003 -0.0156,0.16831 c -0.0177,0.19164 -0.0985,0.10342 0.71539,0.78143 0.43275,0.3605 0.49471,0.45137 0.45605,0.66869 -0.0292,0.16343 -0.18132,0.26231 -0.8516,0.55316 l -0.62661,0.2719 -0.0454,0.14574 c -0.025,0.0802 -0.0292,0.17256 -0.009,0.20534 0.0198,0.0328 0.22359,0.2893 0.4527,0.57011 0.48089,0.5894 0.52848,0.69928 0.3982,0.91963 l -0.0861,0.14554 -0.75704,0.17362 -0.75704,0.1736 -0.0603,0.14274 -0.0603,0.14274 0.30629,0.58425 c 0.37141,0.70848 0.41423,0.84819 0.31266,1.02001 -0.10154,0.17181 -0.24464,0.20163 -1.04441,0.21766 l -0.65952,0.0132 -0.096,0.12164 -0.096,0.12164 0.21275,0.74699 0.21276,0.746975 -0.0861,0.14555 c -0.13027,0.22034 -0.24949,0.23161 -0.99769,0.0944 -0.35646,-0.0655 -0.67943,-0.12026 -0.71772,-0.1219 -0.0383,-0.001 -0.11724,0.0466 -0.17542,0.10707 l -0.10581,0.11008 0.0638,0.68008 c 0.0682,0.72745 0.0549,0.90851 -0.0743,1.01275 -0.17178,0.13863 -0.28126,0.12812 -0.80571,-0.0773 -0.98637,-0.38634 -0.87009,-0.35807 -1.02946,-0.25019 l -0.13997,0.0947 -0.0731,0.69709 c -0.0839,0.80059 -0.12842,0.91576 -0.37836,0.97998 -0.1601,0.0411 -0.17327,0.0353 -0.81133,-0.36208 -0.62576,-0.38964 -0.6539,-0.40245 -0.79925,-0.36342 l -0.15066,0.0405 -0.22026,0.70406 c -0.12114,0.38725 -0.24826,0.73678 -0.28251,0.77674 -0.08,0.0934 -0.30521,0.15128 -0.42035,0.10795 -0.0493,-0.0185 -0.32912,-0.26351 -0.6219,-0.54441 l -0.53232,-0.51074 -0.1515,0.0372 c -0.14617,0.0358 -0.16466,0.0607 -0.52514,0.70364 -0.36756,0.65566 -0.37627,0.66715 -0.53637,0.70826 -0.24996,0.0642 -0.34442,-0.0153 -0.80383,-0.67627 l -0.40004,-0.57555 -0.16831,-0.0156 c -0.19164,-0.0177 -0.10342,-0.0985 -0.78143,0.71539 -0.3605,0.43275 -0.45136,0.49471 -0.66869,0.45604 -0.16343,-0.029 -0.26231,-0.1813 -0.55316,-0.85158 l -0.2719,-0.62662 -0.14574,-0.0454 c -0.0802,-0.025 -0.17256,-0.0292 -0.20532,-0.009 -0.0327,0.0199 -0.28932,0.22359 -0.57013,0.4527 -0.58938,0.48089 -0.69928,0.52848 -0.91962,0.3982 l -0.14555,-0.0861 -0.17361,-0.75703 -0.17361,-0.75705 -0.14274,-0.0603 -0.14275,-0.0603 -0.58424,0.3063 c -0.71409,0.37434 -0.84744,0.4146 -1.02567,0.30953 -0.12365,-0.0729 -0.133,-0.0909 -0.17093,-0.32852 -0.0221,-0.13827 -0.0421,-0.50271 -0.0447,-0.80986 l -0.004,-0.55847 -0.12416,-0.098 -0.12415,-0.0979 -0.747,0.21275 -0.74698,0.21276 -0.14554,-0.0861 c -0.22052,-0.13037 -0.2317,-0.24949 -0.0937,-0.99784 0.0657,-0.35655 0.11812,-0.68414 0.11637,-0.72798 -10e-4,-0.0439 -0.0484,-0.122895 -0.10355,-0.175625 -0.0985,-0.094 -0.11373,-0.0946 -0.78463,-0.0318 -0.73153,0.0686 -0.91255,0.0554 -1.01688,-0.0739 -0.13864,-0.17178 -0.12813,-0.28126 0.0773,-0.80571 0.38633,-0.98637 0.35808,-0.87009 0.25019,-1.02947 l -0.0948,-0.13998 -0.69709,-0.0731 c -0.80059,-0.084 -0.91576,-0.12842 -0.97996,-0.37836 -0.0411,-0.1601 -0.0353,-0.17327 0.36206,-0.81134 0.39006,-0.62641 0.40248,-0.65374 0.36304,-0.79914 l -0.0408,-0.15056 -0.70356,-0.22025 c -0.38695,-0.12114 -0.73632,-0.2483 -0.77635,-0.28261 -0.0935,-0.0802 -0.15143,-0.30526 -0.1082,-0.42045 0.0185,-0.0493 0.2635,-0.32912 0.5444,-0.6219 l 0.51076,-0.53234 -0.0372,-0.1515 c -0.0358,-0.14616 -0.0607,-0.16465 -0.70364,-0.52513 -0.65566,-0.36757 -0.66714,-0.37628 -0.70827,-0.53637 -0.0642,-0.24995 0.0152,-0.34442 0.67628,-0.80383 l 0.57555,-0.40003 0.0155,-0.16832 c 0.0177,-0.19164 0.0985,-0.10343 -0.71538,-0.78143 -0.43275,-0.3605 -0.49471,-0.45136 -0.45605,-0.66869 0.029,-0.16357 0.18137,-0.26234 0.85537,-0.554825 0.61811,-0.268241 0.63122,-0.276158 0.67218,-0.406023 0.023,-0.07288 0.0258,-0.164556 0.006,-0.203801 -0.0196,-0.03921 -0.22341,-0.301039 -0.45284,-0.581759 -0.48157,-0.589199 -0.52918,-0.698954 -0.39881,-0.919468 l 0.0861,-0.145556 0.75705,-0.173604 0.75703,-0.173617 0.0616,-0.145694 0.0616,-0.145682 -0.26515,-0.491533 c -0.14583,-0.27034 -0.30385,-0.599353 -0.35116,-0.731136 -0.0813,-0.226534 -0.0818,-0.246741 -0.009,-0.37023 0.10556,-0.177952 0.24178,-0.206955 1.04787,-0.223128 l 0.65952,-0.01319 0.096,-0.121768 0.096,-0.121642 -0.21275,-0.746982 -0.21276,-0.746982 0.0861,-0.145556 c 0.13027,-0.220339 0.24949,-0.231611 0.99769,-0.09437 0.35646,0.06547 0.67942,0.12026 0.71771,0.121894 0.0383,0.0013 0.11725,-0.04662 0.17543,-0.107065 l 0.10581,-0.110082 -0.0638,-0.680066 c -0.0682,-0.727466 -0.0549,-0.908522 0.0743,-1.01276 0.17178,-0.138632 0.28126,-0.128127 0.8057,0.07728 0.98637,0.38634 0.8701,0.358078 1.02946,0.250196 l 0.13999,-0.09475 0.0731,-0.697094 c 0.0839,-0.80059 0.12842,-0.915761 0.37836,-0.979962 0.1601,-0.04109 0.17327,-0.03531 0.81133,0.362062 0.62577,0.389645 0.65392,0.40245 0.79926,0.363419 l 0.15066,-0.04046 0.22026,-0.704068 c 0.12114,-0.387244 0.24828,-0.736778 0.28251,-0.776739 0.0343,-0.03996 0.12265,-0.08822 0.19651,-0.107191 0.0739,-0.01897 0.17459,-0.01935 0.22385,-8.04e-4 z m -0.7847,4.165107 c -0.82443,0.370217 -1.68173,0.877735 -2.13024,1.261097 l -0.19659,0.168049 0.0126,0.238334 c 0.054,1.023794 0.0711,1.812106 0.0415,1.917664 -0.0193,0.06912 -0.0857,0.193295 -0.14724,0.276045 -0.17524,0.235581 -0.35423,0.277641 -1.34922,0.317024 -0.46636,0.01847 -0.87968,0.04172 -0.91848,0.05165 -0.0755,0.01935 -0.26893,0.354421 -0.52937,0.916854 l -0.16094,0.34756 2.05904,-0.528943 c 1.33603,-0.343213 2.12972,-0.531771 2.26037,-0.537036 0.40126,-0.01609 1.0216,0.341843 1.41881,0.818736 0.18144,0.21785 0.43054,0.648751 0.73014,1.263048 0.57623,1.181491 0.74761,1.436091 1.12361,1.669371 0.11686,0.0725 0.2982,0.15637 0.4029,0.18631 0.38555,0.11021 0.5539,0.086 2.02247,-0.29123 l 1.35177,-0.34726 -0.23273,-0.90596 -0.23273,-0.905963 -1.23952,0.307801 -1.23952,0.307791 -0.38954,-1.475407 -0.38955,-1.475416 0.0796,-0.04486 c 0.0437,-0.02463 1.86835,-0.504602 4.05469,-1.066544 2.18632,-0.561943 3.97176,-1.034425 3.96763,-1.049982 -0.0101,-0.03569 -0.7931,-0.598712 -0.95597,-0.686839 l -0.12152,-0.06572 -0.79558,0.392875 c -0.43759,0.216079 -0.85149,0.406798 -0.9198,0.423838 -0.14341,0.03581 -0.39255,0.0075 -0.52022,-0.06007 -0.19903,-0.104552 -0.23958,-0.173265 -0.96006,-1.626878 l -0.22695,-0.457881 -0.31529,-0.0519 c -0.75007,-0.123401 -1.75327,-0.145757 -2.59161,-0.05768 -0.64078,0.06736 -0.63125,0.06535 -1.60669,0.328283 -0.72342,0.194992 -1.01603,0.290647 -1.35572,0.44319 z m -4.40446,1.784108 c -0.17242,0.09928 -0.33713,0.343866 -0.37472,0.556514 -0.0892,0.504514 0.36428,1.015638 0.84996,0.957996 0.2753,-0.03267 0.46743,-0.138908 0.6043,-0.334164 0.29366,-0.418925 0.19333,-0.920788 -0.23469,-1.173836 -0.28454,-0.168239 -0.56023,-0.170362 -0.84485,-0.0063 z m 11.63308,-2.843829 c -0.15042,0.166705 -0.25678,0.536307 -0.20845,0.724425 0.0822,0.319739 0.39174,0.597656 0.70564,0.633395 0.57579,0.0656 1.03317,-0.447362 0.89132,-0.999566 -0.0636,-0.247419 -0.12554,-0.336728 -0.33084,-0.47683 -0.34559,-0.235821 -0.78204,-0.1869 -1.05767,0.118626 z m -11.63915,9.649784 c -0.36348,0.18132 -0.60553,0.56261 -0.62156,0.9791 -0.004,0.11372 0.0361,0.422 0.0897,0.685 0.0568,0.27833 0.0833,0.49424 0.0633,0.51659 -0.0189,0.0211 -0.26549,0.098 -0.54798,0.17097 l -0.51361,0.13255 0.0594,0.33656 c 0.074,0.4194 0.33929,1.27349 0.41392,1.33278 0.0307,0.0242 0.50991,0.11988 1.06511,0.2123 0.65773,0.10958 1.06259,0.19799 1.16186,0.25382 0.19423,0.1092 0.35491,0.33336 0.37725,0.52612 0.009,0.0808 -0.0734,0.6851 -0.1838,1.34284 -0.11046,0.65774 -0.1949,1.2189 -0.18768,1.24701 0.015,0.0586 0.34418,0.37714 0.7167,0.69376 1.82439,1.550695 4.17423,2.401665 6.60398,2.391565 0.25978,-0.001 0.50619,-0.0101 0.54756,-0.0212 0.0451,-0.0113 0.2271,-0.26535 0.45383,-0.63265 0.76913,-1.245945 0.77521,-1.253305 1.10735,-1.338635 0.28602,-0.0735 0.45236,-0.005 1.31859,0.545005 0.49828,0.31622 0.79631,0.48162 0.84522,0.4691 0.10719,-0.0274 0.83579,-0.43021 1.16345,-0.64312 1.00141,-0.650695 1.99749,-1.593135 2.67217,-2.528235 0.28391,-0.39351 0.80866,-1.24058 0.79688,-1.28639 -0.004,-0.0165 -2.46912,0.59738 -5.47754,1.36413 l -5.46985,1.3941 -0.36258,-0.0199 c -0.87245,-0.0477 -1.44151,-0.20973 -2.0917,-0.59516 -0.80358,-0.47636 -1.18367,-0.93712 -1.41769,-1.71858 -0.14517,-0.48474 -0.15759,-0.79007 -0.0518,-1.27227 0.11536,-0.52551 0.56433,-1.32182 1.04934,-1.86104 0.12077,-0.13426 0.21622,-0.25716 0.21212,-0.27309 -0.004,-0.016 -0.13833,-0.0876 -0.2983,-0.15911 -0.84834,-0.37952 -1.32233,-0.86252 -1.83295,-1.86775 -0.12891,-0.25377 -0.20419,-0.35863 -0.30119,-0.41952 -0.13092,-0.0822 -0.38707,-0.15535 -0.57327,-0.16371 -0.15283,-0.008 -0.58628,0.10732 -0.78636,0.20711 z m 15.16333,-0.54592 0.79323,3.12794 0.69897,-0.17955 c 0.38441,-0.0988 0.69723,-0.18625 0.69513,-0.19443 -0.003,-0.009 -0.14009,-0.18564 -0.30663,-0.39432 -0.42285,-0.52986 -0.49573,-0.82878 -0.28322,-1.16171 0.0389,-0.0611 0.4288,-0.39674 0.86631,-0.74597 0.73196,-0.58426 0.79583,-0.64469 0.79986,-0.75687 0.003,-0.0671 -0.0833,-0.47082 -0.19035,-0.897263 -0.24066,-0.958138 -0.52319,-1.688356 -0.94601,-2.444977 l -0.12315,-0.220477 -1.39866,0.369841 -1.39866,0.36984 z m -7.53918,3.25674 c -0.49405,0.2161 -0.78634,0.50638 -0.84521,0.83943 -0.0934,0.52826 0.37829,0.9278 1.13393,0.96049 0.14845,0.006 0.54555,-0.0838 1.91535,-0.43538 l 1.72808,-0.44347 -0.23772,-0.92536 -0.23772,-0.92536 -1.61457,0.41507 c -0.91583,0.23541 -1.71307,0.45815 -1.84214,0.5146 z m -8.3766,2.65583 c -0.52232,0.39472 -0.41411,1.21288 0.18999,1.43665 0.25759,0.0954 0.61113,0.0343 0.80823,-0.13967 0.26431,-0.23332 0.36367,-0.64892 0.22802,-0.95368 -0.20531,-0.46118 -0.83643,-0.63788 -1.22624,-0.3433 z m 18.94262,-4.79362 c -0.24069,0.21484 -0.32514,0.50265 -0.24222,0.82548 0.18626,0.72507 1.17744,0.82739 1.50735,0.15561 0.26223,-0.53398 -0.10669,-1.14333 -0.71407,-1.17957 -0.14724,-0.009 -0.43495,0.0949 -0.55106,0.19848 z m -7.62327,9.629995 c -0.55626,0.45449 -0.30948,1.34588 0.40116,1.4491 0.42459,0.0617 0.82894,-0.23821 0.90927,-0.67432 0.10481,-0.56932 -0.44181,-1.07248 -1.00735,-0.9272 -0.0935,0.024 -0.22987,0.0926 -0.30308,0.15242 z"
           id="bind:cog2" /><path
           style="fill:#000000;stroke-width:0.0484699"
           d="m 161.88657,120.88764 c -0.0536,-0.0375 -0.31472,-0.419 -0.58031,-0.84771 l -0.4829,-0.77949 -0.19387,-0.002 c -0.18706,-0.002 -0.21698,0.022 -0.84979,0.68468 -0.64528,0.67564 -0.65931,0.68678 -0.86476,0.68678 -0.32075,0 -0.4099,-0.1249 -0.75855,-1.06273 l -0.30359,-0.81658 -0.19782,-0.0708 c -0.22522,-0.0806 -0.094,-0.15057 -1.16195,0.61956 -0.56783,0.40949 -0.69638,0.45598 -0.94606,0.34222 -0.18774,-0.0855 -0.25971,-0.29939 -0.40255,-1.19626 l -0.13354,-0.83843 -0.16142,-0.0998 c -0.0888,-0.0549 -0.19872,-0.0885 -0.24431,-0.0747 -0.0456,0.0138 -0.41744,0.1797 -0.82633,0.36867 -0.85827,0.39666 -1.00527,0.41996 -1.23025,0.19498 l -0.14861,-0.1486 0.0251,-0.96507 0.0251,-0.96505 -0.15317,-0.11683 -0.15317,-0.11683 -0.79807,0.18805 c -0.96777,0.22802 -1.14921,0.23637 -1.32463,0.061 -0.17543,-0.17543 -0.16708,-0.35687 0.061,-1.32464 l 0.18803,-0.79807 -0.11682,-0.15316 -0.11684,-0.15318 -0.96505,0.0251 -0.96506,0.0251 -0.14861,-0.14861 c -0.22497,-0.22497 -0.20167,-0.37198 0.19498,-1.23024 0.18898,-0.4089 0.35488,-0.78075 0.36867,-0.82635 0.0138,-0.0456 -0.0198,-0.15552 -0.0747,-0.2443 l -0.0998,-0.16142 -0.83842,-0.13354 c -0.89687,-0.14285 -1.11073,-0.21481 -1.19626,-0.40256 -0.11376,-0.24968 -0.0673,-0.37821 0.34221,-0.94605 0.77014,-1.06797 0.70016,-0.93673 0.61956,-1.16196 l -0.0708,-0.19781 -0.81658,-0.30359 c -0.93784,-0.34866 -1.06273,-0.4378 -1.06273,-0.75856 0,-0.20545 0.0111,-0.21947 0.68678,-0.86474 0.63715,-0.6085 0.68667,-0.66851 0.6852,-0.83016 -0.002,-0.21204 -9.3e-4,-0.21137 -0.8256,-0.71956 -0.35988,-0.22185 -0.70342,-0.45624 -0.7634,-0.52088 -0.12674,-0.13658 -0.14706,-0.42405 -0.0407,-0.5759 0.0376,-0.0537 0.41884,-0.31482 0.84721,-0.58031 l 0.77887,-0.48272 0.003,-0.19388 c 0.003,-0.18724 -0.0208,-0.21631 -0.68418,-0.84978 -0.67566,-0.64527 -0.6868,-0.6593 -0.6868,-0.86475 0,-0.32075 0.1249,-0.4099 1.06273,-0.758564 l 0.8166,-0.303583 0.0708,-0.19782 c 0.0806,-0.225225 0.15057,-0.09399 -0.61957,-1.161955 -0.40948,-0.567833 -0.45598,-0.696373 -0.34222,-0.946051 0.0855,-0.187744 0.2994,-0.259711 1.19626,-0.402556 l 0.83844,-0.133541 0.0998,-0.161417 c 0.0549,-0.08878 0.0885,-0.19872 0.0747,-0.244309 -0.0138,-0.04559 -0.17971,-0.41744 -0.36867,-0.826337 -0.39666,-0.858267 -0.41996,-1.005272 -0.19498,-1.230244 l 0.14861,-0.14861 0.96505,0.02512 0.96506,0.02511 0.11683,-0.15317 0.11683,-0.15317 -0.18805,-0.79807 c -0.22802,-0.967766 -0.23637,-1.149201 -0.061,-1.324627 0.17543,-0.175427 0.35686,-0.167079 1.32463,0.06095 l 0.79807,0.188044 0.15317,-0.116828 0.15317,-0.116827 -0.0251,-0.96506 -0.0251,-0.965057 0.14862,-0.148611 c 0.22496,-0.224971 0.37197,-0.201672 1.23023,0.194981 0.4089,0.188973 0.78075,0.354875 0.82635,0.368672 0.0456,0.0138 0.15553,-0.01981 0.2443,-0.07467 l 0.16142,-0.09976 0.13354,-0.838433 c 0.14285,-0.896862 0.21482,-1.110715 0.40256,-1.196257 0.24967,-0.113762 0.37821,-0.06726 0.94605,0.342213 1.06796,0.770137 0.93672,0.70016 1.16195,0.619567 l 0.19782,-0.07078 0.30358,-0.816588 c 0.34867,-0.937833 0.43781,-1.062726 0.75857,-1.062726 0.20545,0 0.21947,0.01114 0.86474,0.686785 0.63282,0.662601 0.66275,0.686713 0.84979,0.68468 l 0.19389,-0.0021 0.48289,-0.779483 c 0.2656,-0.428716 0.52673,-0.810188 0.58031,-0.847713 0.12523,-0.08772 0.41421,-0.08772 0.53944,0 0.0536,0.03752 0.31472,0.418997 0.58031,0.847713 l 0.4829,0.779483 0.19388,0.0021 c 0.18705,0.002 0.21697,-0.02208 0.84978,-0.68468 0.64528,-0.675647 0.65931,-0.686785 0.86476,-0.686785 0.32075,0 0.4099,0.124893 0.75855,1.062726 l 0.30358,0.816588 0.19783,0.07078 c 0.22522,0.0806 0.094,0.15057 1.16196,-0.619567 0.56782,-0.409476 0.69637,-0.455975 0.94604,-0.342213 0.18775,0.08554 0.25971,0.299395 0.40256,1.196257 l 0.13354,0.838433 0.16142,0.09976 c 0.0888,0.05487 0.19872,0.08847 0.24431,0.07467 0.0456,-0.0138 0.41744,-0.179699 0.82633,-0.368672 0.85827,-0.396653 1.00527,-0.419952 1.23025,-0.194981 l 0.14861,0.148611 -0.0251,0.965057 -0.0251,0.96506 0.15318,0.116827 0.15316,0.116828 0.79807,-0.188044 c 0.97541,-0.229831 1.14842,-0.237042 1.33047,-0.05544 0.12634,0.126019 0.13203,0.150483 0.10418,0.448347 -0.0162,0.173282 -0.1047,0.618233 -0.19666,0.988785 l -0.16718,0.673727 0.11924,0.156336 0.11924,0.156334 0.96506,-0.02511 0.96506,-0.02512 0.14861,0.14861 c 0.22514,0.225145 0.20178,0.372012 -0.19575,1.230244 -0.1894,0.408897 -0.35376,0.787071 -0.36524,0.840388 -0.0115,0.05331 0.0202,0.162878 0.0703,0.243466 0.0895,0.14367 0.1077,0.149147 0.93476,0.280909 0.90186,0.143677 1.11572,0.21549 1.20133,0.403397 0.11377,0.249678 0.0673,0.378218 -0.34221,0.946051 -0.77014,1.06797 -0.70015,0.93673 -0.61957,1.161956 l 0.0708,0.19782 0.81659,0.303583 c 0.93783,0.348661 1.06273,0.437811 1.06273,0.758561 0,0.20545 -0.0111,0.21948 -0.68679,0.86476 -0.66329,0.63346 -0.68669,0.66253 -0.68418,0.84978 l 0.003,0.19387 0.77886,0.48272 c 0.42838,0.2655 0.80962,0.52664 0.84722,0.58032 0.0879,0.12538 0.0879,0.41432 1.5e-4,0.53962 -0.0375,0.0536 -0.419,0.31471 -0.84772,0.58031 l -0.77948,0.48289 -0.002,0.19388 c -0.002,0.18706 0.0221,0.21698 0.68468,0.8498 0.67565,0.64527 0.68679,0.65929 0.68679,0.86474 0,0.32076 -0.1249,0.4099 -1.06274,0.75856 l -0.81658,0.30359 -0.0708,0.19781 c -0.0806,0.22523 -0.15057,0.094 0.61957,1.16196 0.40947,0.56784 0.45596,0.69637 0.34221,0.94605 -0.0856,0.18791 -0.29948,0.25972 -1.20133,0.4034 -0.82707,0.13176 -0.8453,0.13724 -0.93477,0.28091 -0.0501,0.0806 -0.0818,0.19015 -0.0703,0.24347 0.0115,0.0533 0.17584,0.43149 0.36524,0.84039 0.39753,0.85823 0.4209,1.00509 0.19575,1.23024 l -0.14861,0.14861 -0.96506,-0.0251 -0.96505,-0.0251 -0.11925,0.15634 -0.11924,0.15633 0.1672,0.67374 c 0.0919,0.37055 0.18045,0.8155 0.19665,0.98878 0.0278,0.29786 0.0221,0.32233 -0.10417,0.44835 -0.18207,0.1816 -0.35506,0.17439 -1.33048,-0.0554 l -0.79806,-0.18804 -0.15318,0.11683 -0.15317,0.11683 0.0251,0.96505 0.0251,0.96506 -0.1486,0.14861 c -0.22497,0.22497 -0.37197,0.20168 -1.23024,-0.19498 -0.4089,-0.18898 -0.78075,-0.35487 -0.82634,-0.36867 -0.0456,-0.0138 -0.15553,0.0198 -0.24431,0.0747 l -0.16142,0.0998 -0.13354,0.83843 c -0.14285,0.89686 -0.21481,1.11072 -0.40255,1.19625 -0.24969,0.11376 -0.37822,0.0673 -0.94606,-0.34221 -1.06796,-0.77013 -0.93672,-0.70016 -1.16195,-0.61956 l -0.19782,0.0708 -0.30358,0.81659 c -0.34866,0.93783 -0.4378,1.06272 -0.75857,1.06272 -0.20545,0 -0.21947,-0.0111 -0.86474,-0.68678 -0.63284,-0.6626 -0.66276,-0.68672 -0.84982,-0.68468 l -0.19387,0.002 -0.4829,0.77949 c -0.26559,0.42871 -0.52673,0.81018 -0.58031,0.84771 -0.0536,0.0375 -0.17495,0.0682 -0.26972,0.0682 -0.0948,0 -0.21614,-0.0307 -0.26973,-0.0682 z m 2.23276,-4.77151 c 1.10698,-0.19072 2.29599,-0.53657 2.95449,-0.8594 l 0.28864,-0.1415 0.0586,-0.29081 c 0.25146,-1.24923 0.47471,-2.20353 0.54307,-2.32143 0.0448,-0.0772 0.1629,-0.20621 0.26261,-0.2868 0.28383,-0.22939 0.51232,-0.22467 1.72232,0.0356 0.56713,0.12199 1.0719,0.22181 1.12171,0.22181 0.0969,0 0.43335,-0.34351 0.92082,-0.94005 l 0.30121,-0.36865 h -2.64234 c -1.71453,0 -2.72834,-0.0184 -2.88725,-0.0525 -0.48804,-0.10467 -1.12414,-0.72746 -1.45483,-1.4244 -0.15107,-0.31838 -0.31769,-0.91416 -0.4884,-1.74633 -0.32831,-1.60054 -0.45587,-1.96006 -0.83638,-2.35717 -0.1183,-0.12346 -0.31064,-0.28047 -0.42741,-0.34888 -0.43006,-0.25198 -0.64022,-0.27487 -2.52484,-0.27487 h -1.73473 v 1.16263 1.16262 l 1.58739,0.0128 1.58739,0.0128 0.0127,1.89665 0.0127,1.89665 -0.10961,0.0294 c -0.0603,0.0161 -2.40528,0.0297 -5.21109,0.03 -2.8058,3.6e-4 -5.10133,0.017 -5.10118,0.037 3.8e-4,0.046 0.76962,0.96604 0.93845,1.12249 l 0.12597,0.11674 1.07928,-0.22691 c 0.5936,-0.1248 1.15086,-0.22642 1.23835,-0.2258 0.18372,9.3e-4 0.47476,0.11297 0.60771,0.2332 0.20726,0.18744 0.23482,0.28267 0.65264,2.25542 l 0.13161,0.62142 0.36353,0.15996 c 0.8648,0.38055 2.0656,0.71768 3.10208,0.87093 0.79222,0.11715 0.78014,0.11654 2.03574,0.10167 0.93121,-0.011 1.31306,-0.0357 1.76915,-0.11426 z m 5.85408,-0.7857 c 0.23826,-0.0662 0.5122,-0.30971 0.62321,-0.55407 0.26338,-0.57979 -0.12446,-1.33534 -0.72697,-1.41616 -0.34153,-0.0458 -0.60566,0.0227 -0.83083,0.21542 -0.48309,0.4135 -0.5175,1.04869 -0.0804,1.48571 0.29051,0.29051 0.62175,0.37832 1.01506,0.2691 z m -14.88403,-0.17403 c 0.23265,-0.15418 0.47499,-0.56624 0.47499,-0.80763 0,-0.41034 -0.28679,-0.84067 -0.65361,-0.98075 -0.6729,-0.25699 -1.38213,0.21905 -1.38213,0.92769 0,0.31752 0.047,0.44419 0.2508,0.67634 0.34311,0.39078 0.88368,0.46685 1.30995,0.18435 z m 16.99611,-8.01747 c 0.49364,-0.10588 0.90296,-0.49004 1.05105,-0.98646 0.0404,-0.1356 0.0872,-0.51918 0.10381,-0.85242 0.0176,-0.35264 0.0525,-0.62076 0.0835,-0.64148 0.0293,-0.0195 0.34994,-0.036 0.71256,-0.0363 l 0.65931,-7.3e-4 0.0325,-0.42355 c 0.0406,-0.52779 -0.0146,-1.63801 -0.0861,-1.73247 -0.0293,-0.0387 -0.57677,-0.30198 -1.21658,-0.58499 -0.75793,-0.33527 -1.21797,-0.56694 -1.32021,-0.66486 -0.20004,-0.19158 -0.32419,-0.51107 -0.29145,-0.75003 0.0137,-0.10019 0.30017,-0.802078 0.63654,-1.559752 0.33638,-0.757677 0.61159,-1.407102 0.61159,-1.443172 0,-0.0751 -0.29771,-0.560461 -0.64825,-1.056838 -1.71675,-2.431015 -4.28245,-4.182158 -7.21064,-4.921412 -0.31307,-0.07904 -0.61267,-0.143705 -0.66576,-0.143705 -0.0578,0 -0.35546,0.249217 -0.742,0.621272 -1.31122,1.262079 -1.32083,1.269059 -1.74705,1.269059 -0.36706,0 -0.54606,-0.134212 -1.41885,-1.063874 -0.50208,-0.534787 -0.8097,-0.826073 -0.87247,-0.82612 -0.13748,-9.7e-5 -1.13922,0.25943 -1.5995,0.414409 -1.40679,0.473659 -2.89738,1.300176 -3.99878,2.217259 -0.46349,0.38593 -1.35716,1.243397 -1.35716,1.302187 0,0.02115 3.15721,0.04443 7.01603,0.05174 l 7.01604,0.0133 0.43035,0.13605 c 1.03551,0.327357 1.67051,0.698272 2.33404,1.363338 0.82009,0.821996 1.13517,1.494227 1.17522,2.507363 0.0248,0.628441 -0.0546,0.999876 -0.33114,1.547636 -0.30135,0.59697 -1.08814,1.41676 -1.83879,1.91591 -0.1869,0.12428 -0.33982,0.24269 -0.33982,0.26314 0,0.0205 0.13946,0.14817 0.3099,0.28379 0.90391,0.71927 1.32517,1.44731 1.629,2.81537 0.0767,0.34538 0.13491,0.49489 0.23285,0.59819 0.13219,0.13944 0.41795,0.30672 0.63951,0.37436 0.18186,0.0555 0.73898,0.0522 1.01072,-0.006 z m -18.42329,-4.03215 0.0124,-4.010884 h -0.89698 c -0.49333,0 -0.89697,0.0086 -0.89697,0.0191 0,0.0105 0.11123,0.266789 0.24719,0.569522 0.34518,0.768642 0.34048,1.151052 -0.0183,1.486132 -0.0658,0.0614 -0.63891,0.34498 -1.27361,0.6301 -1.06186,0.477 -1.15744,0.53001 -1.19699,0.66381 -0.0236,0.08 -0.0454,0.59254 -0.0483,1.13904 -0.006,1.22789 0.10771,2.19433 0.38273,3.23596 l 0.0802,0.30352 1.79816,-0.0127 1.79815,-0.0127 z m 10.08326,-1.58909 c 0.66159,-0.10736 1.10324,-0.36644 1.27711,-0.74916 0.27579,-0.60708 -0.1685,-1.233939 -1.06808,-1.50698 -0.17671,-0.05364 -0.68267,-0.06777 -2.44043,-0.06819 l -2.2175,-5.5e-4 v 1.18752 1.1875 l 2.07209,-3.6e-4 c 1.17532,-1.8e-4 2.20397,-0.0218 2.37681,-0.0499 z m 10.90554,-0.60674 c 0.75085,-0.31365 0.87362,-1.332063 0.21555,-1.788262 -0.28058,-0.194516 -0.72509,-0.230297 -1.01618,-0.0818 -0.39035,0.199143 -0.63849,0.668729 -0.56942,1.077572 0.10453,0.61869 0.80967,1.02658 1.37005,0.79249 z m -24.28664,-0.0873 c 0.35621,-0.1842 0.54689,-0.50456 0.54689,-0.918845 0,-0.930485 -1.16159,-1.360199 -1.7665,-0.653493 -0.48084,0.561742 -0.2252,1.409388 0.49484,1.640868 0.17453,0.0561 0.55294,0.0203 0.72477,-0.0685 z m 12.15546,-9.235584 c 0.8102,-0.37511 0.7888,-1.524536 -0.0348,-1.868572 -0.49207,-0.205549 -1.07159,0.03041 -1.30318,0.530598 -0.3023,0.652942 0.20021,1.427738 0.92599,1.427738 0.11996,0 0.30536,-0.0404 0.41199,-0.08976 z"
           id="bind:cog3" /><path
           style="fill:#000000;stroke-width:0.0418399"
           d="m 128.85419,132.65051 c 0.0155,-0.0543 0.25331,-0.37476 0.52837,-0.71219 l 0.50012,-0.6135 -0.0527,-0.15886 c -0.0508,-0.15329 -0.0791,-0.17083 -0.79796,-0.50068 -0.73299,-0.33633 -0.74602,-0.34464 -0.80386,-0.5123 -0.0903,-0.26174 -0.0135,-0.36964 0.65363,-0.91818 l 0.58088,-0.47761 0.002,-0.18135 c 0.002,-0.20649 0.0964,-0.11906 -0.8327,-0.77375 -0.49401,-0.34808 -0.56813,-0.43989 -0.5456,-0.67565 0.0169,-0.17727 0.1712,-0.29622 0.86283,-0.66528 l 0.64659,-0.34501 0.0359,-0.15979 c 0.0198,-0.0879 0.0163,-0.18708 -0.008,-0.2204 -0.0241,-0.0334 -0.26416,-0.29004 -0.53348,-0.57051 -0.5653,-0.58868 -0.6257,-0.70208 -0.50545,-0.949 l 0.0794,-0.16311 0.79457,-0.25117 0.79458,-0.25118 0.0522,-0.15788 0.0522,-0.15789 -0.37813,-0.59829 c -0.45854,-0.72551 -0.51642,-0.87122 -0.42264,-1.06375 0.0938,-0.19254 0.24417,-0.23681 1.09806,-0.3232 l 0.70419,-0.0712 0.0921,-0.13846 0.0921,-0.13846 -0.29221,-0.78042 -0.2922,-0.78042 0.0794,-0.16311 c 0.12024,-0.24691 0.24676,-0.26929 1.05879,-0.18724 0.38686,0.0391 0.737,0.0698 0.77809,0.0682 0.0411,-0.002 0.12133,-0.06 0.17832,-0.12975 l 0.10364,-0.12684 -0.12707,-0.72176 c -0.13593,-0.77206 -0.13741,-0.96684 -0.008,-1.08949 0.17171,-0.16313 0.28968,-0.16141 0.86833,0.0129 1.0883,0.32778 0.9615,0.30762 1.12259,0.17845 l 0.14149,-0.11345 0.0178,-0.75182 c 0.0205,-0.86344 0.0581,-0.99045 0.31981,-1.08076 0.16765,-0.0578 0.18235,-0.0523 0.899,0.31699 0.67591,0.34861 0.73882,0.37212 0.87032,0.3254 0.17237,-0.0616 0.17215,-0.0604 0.35473,-0.87626 0.0797,-0.35613 0.17428,-0.70245 0.21014,-0.76959 0.0758,-0.14187 0.30462,-0.23939 0.45846,-0.1954 0.0545,0.0156 0.37481,0.25315 0.71205,0.52796 l 0.61318,0.49967 0.15886,-0.0527 c 0.15345,-0.0508 0.17065,-0.0779 0.50082,-0.79754 0.33634,-0.733 0.34465,-0.74604 0.51229,-0.80388 0.26174,-0.0903 0.36966,-0.0135 0.91819,0.65364 l 0.47762,0.58088 0.18135,0.002 c 0.20649,0.002 0.11906,0.0964 0.77376,-0.83269 0.34806,-0.494 0.43987,-0.56813 0.67564,-0.5456 0.17727,0.0169 0.29621,0.1712 0.66527,0.86283 l 0.34501,0.64658 0.1598,0.0359 c 0.0879,0.0198 0.18708,0.0163 0.22039,-0.008 0.0333,-0.0241 0.29005,-0.26416 0.57052,-0.53348 0.58868,-0.5653 0.70208,-0.6257 0.949,-0.50545 l 0.1631,0.0794 0.25118,0.79457 0.25118,0.79458 0.15787,0.0522 0.15788,0.0522 0.5983,-0.37811 c 0.72553,-0.45845 0.87124,-0.51633 1.06378,-0.42255 0.19254,0.0938 0.23681,0.24417 0.3232,1.09807 l 0.0712,0.70417 0.13845,0.0921 0.13846,0.0921 0.78042,-0.2922 0.78043,-0.29221 0.1631,0.0794 c 0.24692,0.12024 0.26929,0.24676 0.18724,1.05879 -0.0391,0.38686 -0.0698,0.737 -0.0682,0.77808 0.002,0.0411 0.06,0.12135 0.12975,0.17833 l 0.12684,0.10364 0.72176,-0.12707 c 0.77206,-0.13593 0.96684,-0.13742 1.0895,-0.008 0.16312,0.17171 0.1614,0.28968 -0.0129,0.86833 -0.32778,1.08829 -0.30762,0.96149 -0.17844,1.12259 l 0.11345,0.1415 0.75181,0.0178 c 0.86344,0.0205 0.99046,0.0581 1.08076,0.31979 0.0578,0.16766 0.0523,0.18237 -0.31697,0.89901 -0.36254,0.70292 -0.37379,0.73413 -0.31948,0.8862 l 0.0565,0.15755 0.77201,0.1746 c 0.42461,0.096 0.80942,0.20173 0.85513,0.23489 0.10681,0.0775 0.18817,0.31331 0.15186,0.44019 -0.0156,0.0542 -0.25331,0.37477 -0.52837,0.71219 l -0.50012,0.6135 0.0527,0.15886 c 0.0508,0.15328 0.0791,0.17083 0.79796,0.50068 0.73299,0.33634 0.74603,0.34464 0.80387,0.5123 0.0903,0.26174 0.0135,0.36964 -0.65364,0.91818 l -0.58089,0.47762 -0.002,0.18135 c -0.002,0.20648 -0.0964,0.11906 0.83269,0.77375 0.494,0.34808 0.56814,0.43988 0.5456,0.67564 -0.0169,0.17728 -0.1712,0.29622 -0.86284,0.66528 l -0.64657,0.34501 -0.036,0.15979 c -0.0198,0.0879 -0.0163,0.18709 0.008,0.22041 0.0241,0.0334 0.26416,0.29003 0.53348,0.5705 0.5653,0.58869 0.6257,0.70209 0.50545,0.949 l -0.0794,0.16311 -0.79458,0.25118 -0.79457,0.25117 -0.0522,0.15788 -0.0522,0.15788 0.37811,0.5983 c 0.46216,0.73124 0.51676,0.87039 0.41985,1.07006 -0.0673,0.13857 -0.0856,0.15009 -0.33653,0.2112 -0.14597,0.0356 -0.53397,0.0886 -0.86222,0.1179 l -0.59684,0.0532 -0.094,0.14132 -0.094,0.14132 0.2922,0.78041 0.2922,0.78043 -0.0794,0.16311 c -0.12034,0.2471 -0.24677,0.26938 -1.05901,0.18661 -0.38699,-0.0394 -0.74185,-0.0671 -0.7886,-0.0614 -0.0467,0.006 -0.12722,0.0623 -0.17887,0.12592 -0.0921,0.11343 -0.0914,0.12991 0.0339,0.84187 0.13665,0.77637 0.13826,0.9711 0.009,1.09386 -0.17171,0.16312 -0.28968,0.1614 -0.86833,-0.0129 -1.08829,-0.32777 -0.9615,-0.30761 -1.1226,-0.17845 l -0.1415,0.11345 -0.0178,0.75183 c -0.0205,0.86343 -0.0581,0.99044 -0.3198,1.08074 -0.16765,0.0578 -0.18236,0.0523 -0.899,-0.31697 -0.70365,-0.36292 -0.73397,-0.37382 -0.88606,-0.31905 l -0.15755,0.0565 -0.17463,0.77146 c -0.0961,0.4243 -0.20181,0.80892 -0.23502,0.85472 -0.0776,0.10695 -0.31333,0.18839 -0.4403,0.15203 -0.0542,-0.0156 -0.37477,-0.2533 -0.71219,-0.52838 l -0.61351,-0.50011 -0.15886,0.0527 c -0.15328,0.0508 -0.17083,0.0791 -0.50067,0.79794 -0.33634,0.733 -0.34465,0.74604 -0.51231,0.80388 -0.26174,0.0903 -0.36964,0.0135 -0.91818,-0.65363 l -0.47761,-0.58089 -0.18135,-0.002 c -0.20649,-0.002 -0.11906,-0.0964 -0.77374,0.8327 -0.34809,0.494 -0.43989,0.56812 -0.67565,0.5456 -0.17744,-0.017 -0.29625,-0.17127 -0.66739,-0.86675 -0.34036,-0.6378 -0.34996,-0.65113 -0.49239,-0.68369 -0.0799,-0.0182 -0.17822,-0.0133 -0.2185,0.0111 -0.0402,0.0245 -0.3026,0.26496 -0.58294,0.53463 -0.58841,0.566 -0.70168,0.62643 -0.94878,0.50609 l -0.16311,-0.0794 -0.25118,-0.79457 -0.25118,-0.79457 -0.16113,-0.0533 -0.16115,-0.0533 -0.50269,0.3261 c -0.27649,0.17938 -0.61467,0.37683 -0.75151,0.43883 -0.2352,0.10664 -0.2568,0.1088 -0.39518,0.0412 -0.19943,-0.0974 -0.24226,-0.24064 -0.32928,-1.10131 l -0.0712,-0.70417 -0.13846,-0.0921 -0.13846,-0.0921 -0.78042,0.29221 -0.78042,0.2922 -0.1631,-0.0794 c -0.24692,-0.12024 -0.26929,-0.24676 -0.18724,-1.05878 0.0391,-0.38687 0.0698,-0.73701 0.0682,-0.7781 -0.002,-0.041 -0.0599,-0.12133 -0.12975,-0.17832 l -0.12683,-0.10363 -0.72177,0.12706 c -0.77206,0.13593 -0.96683,0.13742 -1.08949,0.008 -0.16312,-0.17171 -0.1614,-0.28968 0.0129,-0.86833 0.32778,-1.0883 0.30762,-0.9615 0.17845,-1.1226 l -0.11345,-0.14149 -0.75182,-0.0178 c -0.86344,-0.0205 -0.99045,-0.0581 -1.08075,-0.31981 -0.0579,-0.16765 -0.0523,-0.18235 0.31698,-0.899 0.36252,-0.70294 0.37378,-0.73415 0.31946,-0.88621 l -0.0565,-0.15756 -0.77202,-0.1746 c -0.4246,-0.096 -0.8094,-0.20173 -0.85511,-0.23489 -0.0457,-0.0331 -0.10493,-0.12355 -0.13161,-0.20089 -0.0267,-0.0773 -0.0358,-0.18501 -0.0203,-0.2393 z m 4.52219,0.47864 c 0.46728,0.84963 1.08424,1.7225 1.53305,2.16896 l 0.19674,0.1957 0.25381,-0.034 c 1.09018,-0.14649 1.93174,-0.23298 2.0472,-0.21039 0.0755,0.0148 0.21412,0.0749 0.30796,0.13355 0.2671,0.16702 0.32757,0.35481 0.45586,1.41544 0.0601,0.49714 0.12077,0.93714 0.13479,0.97778 0.0273,0.079 0.40231,0.25692 1.02633,0.48674 l 0.38562,0.14202 -0.74389,-2.15618 c -0.48269,-1.39908 -0.75308,-2.23154 -0.77002,-2.37081 -0.052,-0.4277 0.27714,-1.1221 0.75274,-1.58817 0.21727,-0.2129 0.65653,-0.5166 1.28754,-0.89017 1.21362,-0.71851 1.47108,-0.92382 1.688,-1.34611 0.0674,-0.1313 0.14141,-0.33245 0.16437,-0.447 0.0845,-0.42187 0.044,-0.59981 -0.48653,-2.13768 l -0.48837,-1.41556 -0.94871,0.32731 -0.94871,0.32731 0.43649,1.29891 0.4365,1.29893 -1.54413,0.54426 -1.54414,0.54427 -0.0549,-0.0811 c -0.0301,-0.0447 -0.70136,-1.95439 -1.49156,-4.24386 -0.7902,-2.28948 -1.45007,-4.15797 -1.46628,-4.15223 -0.0373,0.0132 -0.57162,0.89998 -0.65177,1.0818 l -0.0598,0.13566 0.489,0.81681 c 0.26897,0.44926 0.50877,0.87539 0.53289,0.94695 0.0508,0.15025 0.0415,0.41921 -0.0192,0.56155 -0.0946,0.2219 -0.16456,0.2712 -1.65672,1.16753 l -0.47004,0.28235 -0.0282,0.34167 c -0.0671,0.81282 -0.004,1.88761 0.16263,2.77653 0.12745,0.67943 0.12453,0.66942 0.49012,1.68982 0.27161,0.75662 0.39878,1.06143 0.59127,1.4115 z m 2.28923,4.55581 c 0.12106,0.17581 0.39694,0.33077 0.62759,0.35256 0.54727,0.0517 1.05461,-0.4775 0.95094,-0.99189 -0.0587,-0.29162 -0.18904,-0.48784 -0.40969,-0.61733 -0.47342,-0.2778 -1.00143,-0.12705 -1.23502,0.35257 -0.15528,0.31885 -0.13368,0.61386 0.0662,0.90406 z m -4.04826,-12.19454 c 0.19131,0.14643 0.59578,0.22818 0.79276,0.16022 0.33484,-0.11552 0.60525,-0.4707 0.61629,-0.80946 0.0203,-0.62144 -0.56786,-1.06616 -1.14611,-0.86666 -0.25909,0.0894 -0.34925,0.16333 -0.48129,0.39507 -0.22229,0.38999 -0.13218,0.85251 0.21835,1.12083 z m 11.32726,11.61188 c 0.22538,0.37301 0.65407,0.59888 1.10085,0.57996 0.12203,-0.005 0.44819,-0.0751 0.7248,-0.15527 0.29273,-0.0849 0.52132,-0.13194 0.54698,-0.11244 0.0242,0.0184 0.12782,0.27544 0.23028,0.57121 l 0.18613,0.53783 0.35478,-0.0927 c 0.4421,-0.1155 1.33253,-0.47306 1.3895,-0.55798 0.0233,-0.0348 0.084,-0.55567 0.13484,-1.15744 0.0602,-0.71285 0.11975,-1.15347 0.17086,-1.26447 0.10002,-0.21717 0.32578,-0.40843 0.53,-0.44898 0.0856,-0.0171 0.739,0.0191 1.45197,0.0803 0.71297,0.0612 1.32039,0.10293 1.34982,0.0928 0.0613,-0.0211 0.37353,-0.40072 0.6799,-0.82651 1.50043,-2.08528 2.20706,-4.67192 1.98593,-7.26948 -0.0237,-0.27772 -0.0552,-0.5404 -0.0702,-0.58373 -0.0163,-0.0472 -0.30344,-0.2199 -0.71586,-0.43058 -1.39902,-0.71466 -1.40742,-0.72053 -1.52741,-1.06833 -0.10335,-0.29954 -0.0442,-0.48337 0.46868,-1.45732 0.29505,-0.56026 0.44613,-0.89329 0.42851,-0.94451 -0.0386,-0.11222 -0.53243,-0.85658 -0.78848,-1.18856 -0.78256,-1.01459 -1.87666,-1.99825 -2.93508,-2.63883 -0.44541,-0.26956 -1.39671,-0.75741 -1.44468,-0.74085 -0.0172,0.006 0.85264,2.58882 1.93296,5.73975 l 1.96434,5.72892 0.0101,0.38948 c 0.0244,0.93715 -0.0995,1.55974 -0.45541,2.28842 -0.43987,0.90062 -0.89972,1.34698 -1.71517,1.6649 -0.50584,0.19715 -0.8313,0.23687 -1.35612,0.16549 -0.57198,-0.0778 -1.46244,-0.48908 -2.08108,-0.9611 -0.15404,-0.11752 -0.29372,-0.20897 -0.31041,-0.20321 -0.0167,0.006 -0.0816,0.15551 -0.14432,0.33277 -0.33245,0.9401 -0.80795,1.48881 -1.83877,2.1219 -0.26023,0.15981 -0.36585,0.2494 -0.42257,0.35841 -0.0766,0.14712 -0.13262,0.4274 -0.12544,0.62724 0.006,0.16402 0.1655,0.61769 0.28927,0.82312 z m -1.89641,-16.16879 3.27642,-1.11906 -0.25252,-0.73195 c -0.13889,-0.40256 -0.25914,-0.72966 -0.26812,-0.72656 -0.009,0.003 -0.1864,0.16586 -0.39515,0.36205 -0.53004,0.49807 -0.84341,0.60188 -1.21785,0.40345 -0.0686,-0.0364 -0.46139,-0.42424 -0.87274,-0.86189 -0.68817,-0.73219 -0.75834,-0.79527 -0.87865,-0.78988 -0.0719,0.003 -0.49632,0.12977 -0.94308,0.28126 -1.00393,0.34001 -1.76027,0.70568 -2.53283,1.22333 l -0.22511,0.15086 0.51663,1.46373 0.51663,1.46374 z m 4.13545,7.78069 c 0.27388,0.50963 0.6096,0.79709 0.97086,0.83122 0.57304,0.0541 0.95948,-0.48487 0.92903,-1.29581 -0.006,-0.1593 -0.1369,-0.57616 -0.63138,-2.01064 l -0.62384,-1.80966 -0.96902,0.33431 -0.96903,0.33432 0.58364,1.69076 c 0.33104,0.95902 0.63826,1.79233 0.70979,1.92548 z m 3.56532,8.72823 c 0.46733,0.52442 1.33293,0.33788 1.51994,-0.32754 0.0797,-0.28372 -0.0162,-0.65653 -0.21935,-0.85224 -0.27239,-0.26247 -0.72544,-0.33276 -1.03961,-0.16129 -0.47545,0.25945 -0.60976,0.9497 -0.26098,1.34107 z m -6.76619,-19.84274 c 0.2506,0.23879 0.5657,0.3042 0.90375,0.18757 0.7593,-0.26196 0.78293,-1.3308 0.0359,-1.62546 -0.59375,-0.23422 -1.21348,0.21302 -1.19965,0.86575 0.003,0.1582 0.13913,0.45691 0.26001,0.57212 z m 10.95846,7.31892 c 0.53419,0.55552 1.46612,0.21446 1.51499,-0.55442 0.0292,-0.4594 -0.32645,-0.86589 -0.79985,-0.91402 -0.61791,-0.0629 -1.10869,0.56531 -0.90437,1.15755 0.0338,0.0979 0.11896,0.2378 0.18926,0.31092 z"
           id="bind:cog4" /></g><path
         style="fill:#000000;stroke-width:0.0175236"
         d="m 146.12911,23.155142 -1.06902,1.12843 -0.0471,-0.03304 c -0.0259,-0.01818 -0.18462,-0.140171 -0.35266,-0.27111 -1.75667,-1.368888 -3.82761,-2.432193 -5.79753,-2.976659 -4.14737,-1.146287 -7.78301,-0.203834 -9.70851,2.516693 -0.13497,0.190697 -0.37463,0.57991 -0.45395,0.737218 l -0.0359,0.07122 0.16741,-0.09137 c 3.23643,-1.767482 7.99093,-1.083675 12.22338,1.758013 0.41224,0.276778 0.83743,0.58889 1.30301,0.956483 l 0.10013,0.07905 -1.07985,1.139869 c -0.59391,0.626918 -1.07555,1.143923 -1.07028,1.148911 0.005,0.0047 1.60092,-0.03399 3.54591,-0.08659 l 3.53636,-0.09565 -0.0961,-3.554908 -0.0961,-3.554908 z"
         id="bind:arrow23" /><g
         id="g300"><path
           id="path488"
           style="fill:#ffffff;fill-opacity:1;stroke-width:1.99963;stroke-linejoin:round"
           d="m 188.47656,13.587891 c -1.52598,0.03946 -3.07607,0.315484 -4.36764,1.177072 -5.63428,3.218807 -11.13677,6.668961 -16.53548,10.26781 -1.93573,1.21112 -3.67962,2.819284 -4.64693,4.922545 -1.84761,3.674713 -1.58413,8.308887 0.76256,11.703527 3.3348,5.188973 10.7083,7.657781 16.25859,4.586154 2.66958,-1.282772 5.05921,-3.075243 7.71198,-4.380761 1.89046,-0.884716 4.47505,0.566581 4.41557,2.730291 0.0726,1.086524 -0.6263,2.012855 -1.52171,2.551636 -3.74844,2.638221 -7.71096,4.991702 -11.59623,7.460162 -1.69034,0.972956 -3.27122,2.216944 -5.13696,2.835079 -1.87756,0.353384 -3.80069,-1.28681 -3.66949,-3.213221 0.0951,-1.007255 -0.93035,-1.413938 -1.72205,-1.630507 -2.11128,-0.836411 -4.12881,-1.916064 -5.98346,-3.224631 -0.70494,-0.295166 -1.06519,0.487413 -1.12535,1.063509 -0.60841,2.778711 -0.64625,5.783085 0.57868,8.408461 1.87715,4.281187 6.20591,7.537299 10.9517,7.628262 2.33578,0.130518 4.78587,-0.160513 6.78525,-1.467146 5.50143,-3.175063 10.79208,-6.702345 16.08707,-10.207305 1.59438,-1.050763 3.16256,-2.260352 4.04756,-4.000322 2.2736,-3.811659 2.01806,-8.873741 -0.49181,-12.50898 -2.89122,-4.435567 -8.71287,-6.868446 -13.86173,-5.415888 -3.57409,1.145345 -6.52136,3.584482 -9.8712,5.195018 -1.15657,0.614376 -2.66102,0.542551 -3.61854,-0.407089 -1.35214,-1.233165 -1.22169,-3.795665 0.49608,-4.64871 5.32022,-3.63724 10.82138,-6.999688 16.25081,-10.469888 1.12764,0.109267 2.47911,-0.02753 3.25195,0.990234 0.79145,0.634429 0.91281,1.656865 1.03125,2.591797 0.22007,1.124406 1.50285,1.163518 2.32899,1.588149 1.89972,0.787579 3.63902,1.891496 5.36919,2.985093 0.92143,0.29057 1.04708,-0.930294 1.16901,-1.551758 0.4337,-2.559934 0.49981,-5.286098 -0.60242,-7.697154 -1.7535,-4.169028 -5.76987,-7.526686 -10.38193,-7.795421 -0.78563,-0.07358 -1.57484,-0.08473 -2.36331,-0.06602 z" /><path
           style="fill:#ff3e00;fill-opacity:1;stroke-width:0.132267"
           d="m 172.05262,73.748911 c -3.52912,-0.371766 -7.22576,-1.763919 -10.09579,-3.802077 -1.60451,-1.139444 -3.78936,-3.324601 -4.92667,-4.927369 -3.96387,-5.586098 -4.7542,-12.762817 -2.07532,-18.845018 0.28838,-0.654724 0.72364,-1.510735 0.96726,-1.902248 l 0.44294,-0.711839 -0.50353,-1.074496 c -1.84701,-3.941413 -2.15236,-9.254525 -0.77435,-13.473885 1.07854,-3.302428 3.1293,-6.31017 5.77138,-8.464608 1.09179,-0.89028 17.81349,-11.561643 19.24621,-12.2824433 5.46769,-2.7507801 12.13612,-2.7443568 17.9003,0.017242 5.94008,2.8458723 10.13415,8.2764363 11.38809,14.7455123 0.34613,1.78571 0.31323,5.251669 -0.0668,7.035083 -0.4545,2.132928 -1.35914,4.444332 -2.37118,6.058426 l -0.2482,0.395855 0.42532,0.926817 c 1.14143,2.487317 1.68136,5.036063 1.68136,7.936981 0,3.879698 -0.9438,7.053392 -3.04053,10.224346 -0.82063,1.241055 -2.58532,3.154312 -3.79274,4.112035 -1.08791,0.86292 -17.72082,11.409706 -19.03908,12.072518 -3.30261,1.660519 -7.15085,2.352921 -10.88869,1.959168 z m 4.15852,-7.746053 c 2.07043,-0.426621 2.64034,-0.743683 11.60087,-6.453962 4.72855,-3.013368 8.9581,-5.773518 9.399,-6.133672 1.60527,-1.311277 2.98036,-3.580368 3.50628,-5.78584 0.2443,-1.024491 0.27427,-1.448488 0.21502,-3.042145 -0.0797,-2.142946 -0.26712,-2.94616 -1.08041,-4.629353 -2.65266,-5.489998 -8.87614,-8.312387 -14.7277,-6.679107 -1.36216,0.380208 -2.29325,0.881506 -5.90956,3.181705 -3.8933,2.476383 -4.065,2.557664 -5.2272,2.474508 -2.59325,-0.185545 -4.19546,-2.758573 -3.09405,-4.968811 0.18824,-0.377752 0.50073,-0.811778 0.69441,-0.964499 0.5975,-0.47115 16.53914,-10.569513 16.922,-10.719383 0.19819,-0.07758 0.71747,-0.144682 1.15394,-0.14911 1.07413,-0.0109 2.0209,0.411445 2.75654,1.229655 0.65408,0.727497 0.88082,1.361659 0.88082,2.4636 v 0.784061 l 1.15733,0.372771 c 1.6742,0.539247 3.40532,1.401946 5.0681,2.525662 l 1.45568,0.983765 0.13162,-0.346179 c 0.0724,-0.190399 0.25898,-0.828424 0.41464,-1.417835 0.35347,-1.338389 0.38684,-3.768479 0.0712,-5.189181 -0.76627,-3.449582 -3.39347,-6.775905 -6.64528,-8.413644 -3.31175,-1.667924 -7.64084,-1.72088 -10.84592,-0.132676 -0.89398,0.442995 -17.17609,10.793133 -17.90718,11.383158 -1.44187,1.163663 -2.64581,2.749917 -3.31045,4.361683 -1.21709,2.951474 -1.07824,6.641522 0.35721,9.492801 2.71644,5.395784 8.66879,8.103718 14.51201,6.602041 1.28521,-0.330294 2.47251,-0.963882 6.07039,-3.239388 1.8701,-1.182757 3.62026,-2.229048 3.88924,-2.325091 2.20703,-0.788035 4.77834,1.031497 4.78356,3.38498 0.002,0.82006 -0.41871,1.867132 -0.93724,2.33363 -0.6653,0.59855 -16.61464,10.677542 -17.17918,10.856174 -2.25276,0.712833 -4.67208,-1.122918 -4.65951,-3.535582 l 0.004,-0.861021 -1.07837,-0.324255 c -1.42732,-0.429175 -4.117,-1.792288 -5.48064,-2.777561 l -1.0956,-0.791599 -0.13203,0.347266 c -0.50004,1.315202 -0.70177,2.542025 -0.69225,4.210052 0.0115,2.026745 0.27844,3.223334 1.10417,4.95055 0.69526,1.454306 1.45911,2.505017 2.65741,3.655404 1.82722,1.754171 3.70154,2.747368 6.21287,3.292192 1.17589,0.255108 3.73203,0.252153 4.98372,-0.0057 z"
           id="path210" /></g></g></g></svg>
